# This file uses centimeters as units for non-parametric coordinates.

mtllib Zuku_Cereal.mtl
g default
v -0.082317 0.032499 0.635058
v 0.769178 0.032499 0.635058
v -0.082317 1.345525 0.635058
v 0.769178 1.345525 0.635058
v -0.082317 1.345525 0.299004
v 0.769178 1.345525 0.299004
v -0.082317 0.032499 0.299004
v 0.769178 0.032499 0.299004
vt 0.177543 0.316594
vt 0.483387 0.316594
vt 0.483387 0.853615
vt 0.177543 0.853615
vt 0.218219 0.865871
vt 0.431009 0.866698
vt 0.430667 0.965569
vt 0.217876 0.964742
vt 0.955490 0.860678
vt 0.624735 0.860726
vt 0.624623 0.316180
vt 0.955378 0.316132
vt 0.263874 0.255170
vt 0.396075 0.255421
vt 0.396212 0.308150
vt 0.264011 0.307899
vt 0.489551 0.320142
vt 0.620113 0.320142
vt 0.620113 0.841591
vt 0.489551 0.841591
vt 0.027585 0.329394
vt 0.147897 0.329394
vt 0.147897 0.858118
vt 0.027585 0.858118
vn 0.000000 0.000000 1.000000
vn 0.000000 0.000000 1.000000
vn 0.000000 0.000000 1.000000
vn 0.000000 0.000000 1.000000
vn 0.000000 1.000000 0.000000
vn 0.000000 1.000000 0.000000
vn 0.000000 1.000000 0.000000
vn 0.000000 1.000000 0.000000
vn 0.000000 0.000000 -1.000000
vn 0.000000 0.000000 -1.000000
vn 0.000000 0.000000 -1.000000
vn 0.000000 0.000000 -1.000000
vn 0.000000 -1.000000 0.000000
vn 0.000000 -1.000000 0.000000
vn 0.000000 -1.000000 0.000000
vn 0.000000 -1.000000 0.000000
vn 1.000000 0.000000 0.000000
vn 1.000000 0.000000 0.000000
vn 1.000000 0.000000 0.000000
vn 1.000000 0.000000 0.000000
vn -1.000000 0.000000 0.000000
vn -1.000000 0.000000 0.000000
vn -1.000000 0.000000 0.000000
vn -1.000000 0.000000 0.000000
s off
g Cereal_Box
usemtl lambert2SG
f 1/1/1 2/2/2 4/3/3 3/4/4
f 3/5/5 4/6/6 6/7/7 5/8/8
f 5/9/9 6/10/10 8/11/11 7/12/12
f 7/13/13 8/14/14 2/15/15 1/16/16
f 2/17/17 8/18/18 6/19/19 4/20/20
f 7/21/21 1/22/22 3/23/23 5/24/24
