# This file uses centimeters as units for non-parametric coordinates.

mtllib Building.mtl
g default
v -4.000000 0.000000 4.000000
v 4.000000 0.000000 4.000000
v -4.000000 16.000000 4.000000
v 4.000000 16.000000 4.000000
v -4.000000 16.000000 -4.000000
v 4.000000 16.000000 -4.000000
v -4.000000 0.000000 -4.000000
v 4.000000 0.000000 -4.000000
vt -0.000055 0.009006
vt 0.992241 0.009006
vt 0.992241 0.992966
vt -0.000055 0.992966
vt 0.022376 0.726568
vt 0.064541 0.726568
vt 0.064541 0.768734
vt 0.022376 0.768734
vt 0.987595 0.993659
vt 0.003797 0.993659
vt 0.003797 0.008312
vt 0.987595 0.008312
vt 0.069880 0.704939
vt 0.021144 0.704939
vt 0.021144 0.656202
vt 0.069880 0.656202
vt 0.007700 0.005571
vt 0.997436 0.005571
vt 0.997436 0.996401
vt 0.007700 0.996401
vt 0.005226 0.002357
vt 0.991865 0.002357
vt 0.991865 0.995672
vt 0.005226 0.995672
vn 0.000000 0.000000 1.000000
vn 0.000000 0.000000 1.000000
vn 0.000000 0.000000 1.000000
vn 0.000000 0.000000 1.000000
vn 0.000000 1.000000 0.000000
vn 0.000000 1.000000 0.000000
vn 0.000000 1.000000 0.000000
vn 0.000000 1.000000 0.000000
vn 0.000000 0.000000 -1.000000
vn 0.000000 0.000000 -1.000000
vn 0.000000 0.000000 -1.000000
vn 0.000000 0.000000 -1.000000
vn 0.000000 -1.000000 0.000000
vn 0.000000 -1.000000 0.000000
vn 0.000000 -1.000000 0.000000
vn 0.000000 -1.000000 0.000000
vn 1.000000 0.000000 0.000000
vn 1.000000 0.000000 0.000000
vn 1.000000 0.000000 0.000000
vn 1.000000 0.000000 0.000000
vn -1.000000 0.000000 0.000000
vn -1.000000 0.000000 0.000000
vn -1.000000 0.000000 0.000000
vn -1.000000 0.000000 0.000000
s 1
g pCube1
usemtl lambert3SG
f 1/1/1 2/2/2 3/4/3
f 3/4/3 2/2/2 4/3/4
s 2
f 3/5/5 4/6/6 5/8/7
f 5/8/7 4/6/6 6/7/8
s 3
f 5/9/9 6/10/10 7/12/11
f 7/12/11 6/10/10 8/11/12
s 4
f 7/13/13 8/14/14 1/16/15
f 1/16/15 8/14/14 2/15/16
s 5
f 2/17/17 8/18/18 4/20/19
f 4/20/19 8/18/18 6/19/20
s 6
f 7/21/21 1/22/22 5/24/23
f 5/24/23 1/22/22 3/23/24
