# This file uses centimeters as units for non-parametric coordinates.

mtllib Cafeteria.mtl
g default
v -11.958856 0.011614 11.945256
v 12.004802 0.011614 11.945256
v -11.958856 2.658154 8.214128
v 12.004802 2.658154 8.214128
v -11.958856 0.011614 8.214128
v 12.004802 0.011614 8.214128
v -11.958856 2.658154 11.680629
v -11.958856 2.393527 11.945256
v 12.004802 2.658154 11.680629
v 12.004802 2.393527 11.945256
v -3.947445 0.000000 8.229231
v -0.923032 0.000000 8.229231
v -3.947445 2.644229 8.229231
v -0.923032 2.644229 8.229231
v -3.947445 2.644229 5.291369
v -0.923032 2.644229 5.291369
v -3.947445 0.000000 5.291369
v -0.923032 0.000000 5.291369
v 8.342752 0.011614 -12.003683
v 8.250807 0.011614 11.440617
v 8.342752 2.658154 -12.003683
v 8.250807 2.658154 11.440617
v 12.073853 2.658154 -11.989050
v 11.981907 2.658154 11.455250
v 12.073853 0.011614 -11.989050
v 11.981907 0.011614 11.455250
vt 0.625000 0.500000
vt 0.375000 0.750000
vt 0.625000 0.750000
vt 0.375000 1.000000
vt 0.625000 1.000000
vt 0.125000 0.000000
vt 0.357269 0.250000
vt 0.125000 0.250000
vt 0.625000 0.000000
vt 0.875000 0.000000
vt 0.875000 0.250000
vt 0.642731 0.250000
vt 0.375000 0.267731
vt 0.375000 0.500000
vt 0.375000 0.000000
vt 0.625000 0.225003
vt 0.375000 0.225003
vt 0.625000 0.267731
vt 0.375000 0.000000
vt 0.625000 0.000000
vt 0.375000 0.250000
vt 0.625000 0.250000
vt 0.375000 0.500000
vt 0.625000 0.500000
vt 0.375000 0.750000
vt 0.625000 0.750000
vt 0.375000 1.000000
vt 0.625000 1.000000
vt 0.875000 0.000000
vt 0.875000 0.250000
vt 0.125000 0.000000
vt 0.125000 0.250000
vt 0.375000 0.000000
vt 0.625000 0.000000
vt 0.375000 0.250000
vt 0.625000 0.250000
vt 0.375000 0.500000
vt 0.625000 0.500000
vt 0.375000 0.750000
vt 0.625000 0.750000
vt 0.375000 1.000000
vt 0.625000 1.000000
vt 0.875000 0.000000
vt 0.875000 0.250000
vt 0.125000 0.000000
vt 0.125000 0.250000
vn 0.000000 0.000000 1.000000
vn 0.000000 0.000000 1.000000
vn 0.000000 0.000000 1.000000
vn 0.000000 0.000000 1.000000
vn 0.000000 1.000000 0.000000
vn 0.000000 1.000000 0.000000
vn 0.000000 1.000000 0.000000
vn 0.000000 1.000000 0.000000
vn 0.000000 0.000000 -1.000000
vn 0.000000 0.000000 -1.000000
vn 0.000000 0.000000 -1.000000
vn 0.000000 0.000000 -1.000000
vn 0.000000 -1.000000 0.000000
vn 0.000000 -1.000000 0.000000
vn 0.000000 -1.000000 0.000000
vn 0.000000 -1.000000 0.000000
vn 1.000000 0.000000 0.000000
vn 1.000000 0.000000 0.000000
vn 1.000000 0.000001 0.000000
vn 1.000000 0.000001 0.000000
vn 1.000000 0.000000 0.000000
vn -1.000000 0.000000 0.000000
vn -1.000000 0.000000 0.000000
vn -1.000000 0.000000 0.000000
vn -1.000000 0.000000 0.000000
vn -1.000000 0.000000 0.000000
vn 0.000000 0.707107 0.707107
vn 0.000000 0.707107 0.707107
vn 0.000000 0.707107 0.707107
vn 0.000000 0.707107 0.707107
vn 0.000000 0.000000 1.000000
vn 0.000000 0.000000 1.000000
vn 0.000000 0.000000 1.000000
vn 0.000000 0.000000 1.000000
vn 0.000000 1.000000 0.000000
vn 0.000000 1.000000 0.000000
vn 0.000000 1.000000 0.000000
vn 0.000000 1.000000 0.000000
vn 0.000000 0.000000 -1.000000
vn 0.000000 0.000000 -1.000000
vn 0.000000 0.000000 -1.000000
vn 0.000000 0.000000 -1.000000
vn 0.000000 -1.000000 0.000000
vn 0.000000 -1.000000 0.000000
vn 0.000000 -1.000000 0.000000
vn 0.000000 -1.000000 0.000000
vn 1.000000 0.000000 0.000000
vn 1.000000 0.000000 0.000000
vn 1.000000 0.000000 0.000000
vn 1.000000 0.000000 0.000000
vn -1.000000 0.000000 0.000000
vn -1.000000 0.000000 0.000000
vn -1.000000 0.000000 0.000000
vn -1.000000 0.000000 0.000000
vn -0.999992 0.000000 -0.003922
vn -0.999992 0.000000 -0.003922
vn -0.999992 0.000000 -0.003922
vn -0.999992 0.000000 -0.003922
vn 0.000000 1.000000 0.000000
vn 0.000000 1.000000 0.000000
vn 0.000000 1.000000 0.000000
vn 0.000000 1.000000 0.000000
vn 0.999992 0.000000 0.003922
vn 0.999992 0.000000 0.003922
vn 0.999992 0.000000 0.003922
vn 0.999992 0.000000 0.003922
vn 0.000000 -1.000000 0.000000
vn 0.000000 -1.000000 0.000000
vn 0.000000 -1.000000 0.000000
vn 0.000000 -1.000000 0.000000
vn -0.003922 0.000000 0.999992
vn -0.003922 0.000000 0.999992
vn -0.003922 0.000000 0.999992
vn -0.003922 0.000000 0.999992
vn 0.003922 0.000000 -0.999992
vn 0.003922 0.000000 -0.999992
vn 0.003922 0.000000 -0.999992
vn 0.003922 0.000000 -0.999992
s 1
g pCube4
usemtl initialShadingGroup
f 1/15/1 2/9/2 8/17/3
f 8/17/3 2/9/2 10/16/4
s 2
f 7/13/5 9/18/6 3/14/7
f 3/14/7 9/18/6 4/1/8
s 3
f 3/14/9 4/1/10 5/2/11
f 5/2/11 4/1/10 6/3/12
s 4
f 5/2/13 6/3/14 1/4/15
f 1/4/15 6/3/14 2/5/16
s 5
f 2/9/17 6/10/18 10/16/19
f 10/16/19 6/10/18 9/12/20
f 6/10/18 4/11/21 9/12/20
s 6
f 5/6/22 1/15/23 3/8/24
f 3/8/24 1/15/23 7/7/25
f 1/15/23 8/17/26 7/7/25
s 7
f 7/13/27 8/17/28 9/18/29
f 9/18/29 8/17/28 10/16/30
s 8
f 11/19/31 12/20/32 13/21/33
f 13/21/33 12/20/32 14/22/34
s 9
f 13/21/35 14/22/36 15/23/37
f 15/23/37 14/22/36 16/24/38
s 10
f 15/23/39 16/24/40 17/25/41
f 17/25/41 16/24/40 18/26/42
s 11
f 17/25/43 18/26/44 11/27/45
f 11/27/45 18/26/44 12/28/46
s 12
f 12/20/47 18/29/48 14/22/49
f 14/22/49 18/29/48 16/30/50
s 13
f 17/31/51 11/19/52 15/32/53
f 15/32/53 11/19/52 13/21/54
s 14
f 19/33/55 20/34/56 21/35/57
f 21/35/57 20/34/56 22/36/58
s 15
f 21/35/59 22/36/60 23/37/61
f 23/37/61 22/36/60 24/38/62
s 16
f 23/37/63 24/38/64 25/39/65
f 25/39/65 24/38/64 26/40/66
s 17
f 25/39/67 26/40/68 19/41/69
f 19/41/69 26/40/68 20/42/70
s 18
f 20/34/71 26/43/72 22/36/73
f 22/36/73 26/43/72 24/44/74
s 19
f 25/45/75 19/33/76 23/46/77
f 23/46/77 19/33/76 21/35/78
