# This file uses centimeters as units for non-parametric coordinates.

mtllib Can3.mtl
g default
v 0.457159 -0.000000 -0.365509
v 0.382907 -0.000000 -0.511237
v 0.267256 -0.000000 -0.626888
v 0.121528 -0.000000 -0.701140
v -0.040013 -0.000000 -0.726726
v -0.201554 -0.000000 -0.701140
v -0.347283 -0.000000 -0.626888
v -0.462933 -0.000000 -0.511237
v -0.537186 -0.000000 -0.365509
v -0.562771 -0.000000 -0.203968
v -0.537186 -0.000000 -0.042426
v -0.462933 -0.000000 0.103302
v -0.347283 -0.000000 0.218953
v -0.201554 -0.000000 0.293205
v -0.040013 -0.000000 0.318790
v 0.121528 -0.000000 0.293205
v 0.267256 -0.000000 0.218953
v 0.382907 -0.000000 0.103302
v 0.457159 -0.000000 -0.042426
v 0.482745 -0.000000 -0.203968
v 0.457159 1.270609 -0.365509
v 0.382907 1.270609 -0.511237
v 0.267256 1.270609 -0.626888
v 0.121528 1.270609 -0.701140
v -0.040013 1.270609 -0.726726
v -0.201554 1.270609 -0.701140
v -0.347283 1.270609 -0.626888
v -0.462933 1.270609 -0.511237
v -0.537186 1.270609 -0.365509
v -0.562771 1.270609 -0.203968
v -0.537186 1.270609 -0.042426
v -0.462933 1.270609 0.103302
v -0.347283 1.270609 0.218953
v -0.201554 1.270609 0.293205
v -0.040013 1.270609 0.318790
v 0.121528 1.270609 0.293205
v 0.267256 1.270609 0.218953
v 0.382907 1.270609 0.103302
v 0.457159 1.270609 -0.042426
v 0.482745 1.270609 -0.203968
v -0.040013 -0.000000 -0.203968
v -0.040013 1.270609 -0.203968
vt 0.999105 0.086180
vt 0.993313 0.067956
vt 0.984292 0.053493
vt 0.972925 0.044207
vt 0.960324 0.041008
vt 0.947723 0.044207
vt 0.936356 0.053493
vt 0.927335 0.067956
vt 0.921543 0.086180
vt 0.919547 0.106382
vt 0.921543 0.126583
vt 0.927335 0.144807
vt 0.936356 0.159270
vt 0.947723 0.168556
vt 0.960324 0.171755
vt 0.972925 0.168556
vt 0.984292 0.159270
vt 0.993313 0.144807
vt 0.999105 0.126583
vt 1.001101 0.106382
vt 0.003672 0.004378
vt 0.049125 0.004378
vt 0.094577 0.004378
vt 0.140030 0.004378
vt 0.185482 0.004378
vt 0.230935 0.004378
vt 0.276388 0.004378
vt 0.321840 0.004378
vt 0.367293 0.004378
vt 0.412745 0.004378
vt 0.458198 0.004378
vt 0.503650 0.004378
vt 0.549103 0.004378
vt 0.594555 0.004378
vt 0.640008 0.004378
vt 0.685461 0.004378
vt 0.730913 0.004378
vt 0.776366 0.004378
vt 0.821818 0.004378
vt 0.867271 0.004378
vt 0.912723 0.004378
vt 0.003672 0.999095
vt 0.049125 0.999095
vt 0.094577 0.999095
vt 0.140030 0.999095
vt 0.185482 0.999095
vt 0.230935 0.999095
vt 0.276388 0.999095
vt 0.321840 0.999095
vt 0.367293 0.999095
vt 0.412745 0.999095
vt 0.458198 0.999095
vt 0.503650 0.999095
vt 0.549103 0.999095
vt 0.594555 0.999095
vt 0.640008 0.999095
vt 0.685461 0.999095
vt 0.730913 0.999095
vt 0.776366 0.999095
vt 0.821818 0.999095
vt 0.867271 0.999095
vt 0.912723 0.999095
vt 0.967613 0.982255
vt 0.976653 0.976370
vt 0.983827 0.967206
vt 0.988433 0.955659
vt 0.990020 0.942858
vt 0.988433 0.930057
vt 0.983827 0.918509
vt 0.976653 0.909345
vt 0.967613 0.903461
vt 0.957593 0.901434
vt 0.947572 0.903461
vt 0.938532 0.909345
vt 0.931358 0.918509
vt 0.926752 0.930057
vt 0.925165 0.942858
vt 0.926752 0.955658
vt 0.931358 0.967206
vt 0.938532 0.976370
vt 0.947572 0.982254
vt 0.957593 0.984282
vt 0.960324 0.103767
vt 0.958890 0.942858
vn 0.951057 0.000000 -0.309016
vn 0.809017 0.000000 -0.587785
vn 0.951057 0.000000 -0.309016
vn 0.809017 0.000000 -0.587785
vn 0.587785 0.000000 -0.809017
vn 0.587785 0.000000 -0.809017
vn 0.309017 0.000000 -0.951057
vn 0.309017 0.000000 -0.951057
vn -0.000001 0.000000 -1.000000
vn 0.000000 0.000000 -1.000000
vn -0.309018 0.000000 -0.951056
vn -0.309017 0.000000 -0.951057
vn -0.587785 0.000000 -0.809017
vn -0.587785 0.000000 -0.809017
vn -0.809017 0.000000 -0.587785
vn -0.809017 0.000000 -0.587785
vn -0.951057 0.000000 -0.309017
vn -0.951057 0.000000 -0.309017
vn -1.000000 0.000000 -0.000000
vn -1.000000 0.000000 0.000000
vn -0.951057 0.000000 0.309017
vn -0.951057 0.000000 0.309017
vn -0.809017 0.000000 0.587785
vn -0.809017 0.000000 0.587785
vn -0.587785 0.000000 0.809017
vn -0.587785 0.000000 0.809017
vn -0.309017 0.000000 0.951056
vn -0.309017 0.000000 0.951057
vn 0.000000 0.000000 1.000000
vn 0.000000 0.000000 1.000000
vn 0.309017 0.000000 0.951056
vn 0.309017 0.000000 0.951057
vn 0.587785 0.000000 0.809017
vn 0.587785 0.000000 0.809017
vn 0.809017 0.000000 0.587785
vn 0.809017 0.000000 0.587785
vn 0.951057 0.000000 0.309017
vn 0.951057 0.000000 0.309017
vn 1.000000 0.000000 0.000001
vn 1.000000 0.000000 0.000001
vn 0.000000 -1.000000 0.000000
vn 0.000000 -1.000000 0.000000
vn 0.000000 -1.000000 0.000000
vn 0.000000 -1.000000 0.000000
vn 0.000000 -1.000000 0.000000
vn 0.000000 -1.000000 0.000000
vn 0.000000 -1.000000 0.000000
vn 0.000000 -1.000000 0.000000
vn 0.000000 -1.000000 0.000000
vn 0.000000 -1.000000 0.000000
vn 0.000000 -1.000000 0.000000
vn 0.000000 -1.000000 -0.000000
vn 0.000000 -1.000000 -0.000000
vn 0.000000 -1.000000 0.000000
vn 0.000000 -1.000000 0.000000
vn 0.000000 -1.000000 -0.000000
vn 0.000000 -1.000000 -0.000000
vn 0.000000 -1.000000 0.000000
vn 0.000000 -1.000000 0.000000
vn 0.000000 -1.000000 -0.000000
vn 0.000000 -1.000000 0.000000
vn 0.000000 1.000000 0.000000
vn 0.000000 1.000000 0.000000
vn 0.000000 1.000000 0.000000
vn 0.000000 1.000000 0.000000
vn 0.000000 1.000000 0.000000
vn 0.000000 1.000000 0.000000
vn 0.000000 1.000000 0.000000
vn 0.000000 1.000000 0.000000
vn 0.000000 1.000000 0.000000
vn 0.000000 1.000000 0.000000
vn 0.000000 1.000000 0.000000
vn 0.000000 1.000000 -0.000000
vn 0.000000 1.000000 -0.000000
vn 0.000000 1.000000 0.000000
vn 0.000000 1.000000 0.000000
vn 0.000000 1.000000 -0.000000
vn 0.000000 1.000000 -0.000000
vn 0.000000 1.000000 0.000000
vn 0.000000 1.000000 0.000000
vn 0.000000 1.000000 0.000000
vn 0.000000 1.000000 0.000000
s 1
g pCylinder1
usemtl lambert2SG
f 1/21/1 2/22/2 21/42/3
f 21/42/3 2/22/2 22/43/4
f 2/22/2 3/23/5 22/43/4
f 22/43/4 3/23/5 23/44/6
f 3/23/5 4/24/7 23/44/6
f 23/44/6 4/24/7 24/45/8
f 4/24/7 5/25/9 24/45/8
f 24/45/8 5/25/9 25/46/10
f 5/25/9 6/26/11 25/46/10
f 25/46/10 6/26/11 26/47/12
f 6/26/11 7/27/13 26/47/12
f 26/47/12 7/27/13 27/48/14
f 7/27/13 8/28/15 27/48/14
f 27/48/14 8/28/15 28/49/16
f 8/28/15 9/29/17 28/49/16
f 28/49/16 9/29/17 29/50/18
f 9/29/17 10/30/19 29/50/18
f 29/50/18 10/30/19 30/51/20
f 10/30/19 11/31/21 30/51/20
f 30/51/20 11/31/21 31/52/22
f 11/31/21 12/32/23 31/52/22
f 31/52/22 12/32/23 32/53/24
f 12/32/23 13/33/25 32/53/24
f 32/53/24 13/33/25 33/54/26
f 13/33/25 14/34/27 33/54/26
f 33/54/26 14/34/27 34/55/28
f 14/34/27 15/35/29 34/55/28
f 34/55/28 15/35/29 35/56/30
f 15/35/29 16/36/31 35/56/30
f 35/56/30 16/36/31 36/57/32
f 16/36/31 17/37/33 36/57/32
f 36/57/32 17/37/33 37/58/34
f 17/37/33 18/38/35 37/58/34
f 37/58/34 18/38/35 38/59/36
f 18/38/35 19/39/37 38/59/36
f 38/59/36 19/39/37 39/60/38
f 19/39/37 20/40/39 39/60/38
f 39/60/38 20/40/39 40/61/40
f 20/40/39 1/41/1 40/61/40
f 40/61/40 1/41/1 21/62/3
s 2
f 2/2/41 1/1/42 41/83/43
f 3/3/44 2/2/41 41/83/43
f 4/4/45 3/3/44 41/83/43
f 5/5/46 4/4/45 41/83/43
f 6/6/47 5/5/46 41/83/43
f 7/7/48 6/6/47 41/83/43
f 8/8/49 7/7/48 41/83/43
f 9/9/50 8/8/49 41/83/43
f 10/10/51 9/9/50 41/83/43
f 11/11/52 10/10/51 41/83/43
f 12/12/53 11/11/52 41/83/43
f 13/13/54 12/12/53 41/83/43
f 14/14/55 13/13/54 41/83/43
f 15/15/56 14/14/55 41/83/43
f 16/16/57 15/15/56 41/83/43
f 17/17/58 16/16/57 41/83/43
f 18/18/59 17/17/58 41/83/43
f 19/19/60 18/18/59 41/83/43
f 20/20/61 19/19/60 41/83/43
f 1/1/42 20/20/61 41/83/43
s 3
f 21/81/62 22/80/63 42/84/64
f 22/80/63 23/79/65 42/84/64
f 23/79/65 24/78/66 42/84/64
f 24/78/66 25/77/67 42/84/64
f 25/77/67 26/76/68 42/84/64
f 26/76/68 27/75/69 42/84/64
f 27/75/69 28/74/70 42/84/64
f 28/74/70 29/73/71 42/84/64
f 29/73/71 30/72/72 42/84/64
f 30/72/72 31/71/73 42/84/64
f 31/71/73 32/70/74 42/84/64
f 32/70/74 33/69/75 42/84/64
f 33/69/75 34/68/76 42/84/64
f 34/68/76 35/67/77 42/84/64
f 35/67/77 36/66/78 42/84/64
f 36/66/78 37/65/79 42/84/64
f 37/65/79 38/64/80 42/84/64
f 38/64/80 39/63/81 42/84/64
f 39/63/81 40/82/82 42/84/64
f 40/82/82 21/81/62 42/84/64
