# This file uses centimeters as units for non-parametric coordinates.

mtllib CashierHat.mtl
g default
v -1.010000 8.502500 1.010000
v 1.010000 8.502500 1.010000
v -1.010000 9.007500 1.010000
v 1.010000 9.007500 1.010000
v -1.010000 9.007500 -1.010000
v 1.010000 9.007500 -1.010000
v -1.010000 8.502500 -1.010000
v 1.010000 8.502500 -1.010000
v 1.010000 8.755000 1.010000
v -1.010000 8.755000 1.010000
v -1.010000 8.503510 1.515000
v 1.010000 8.503510 1.515000
v 1.010000 8.756010 1.515000
v -1.010000 8.756010 1.515000
v 1.010000 8.755000 -1.010000
v -1.010000 8.755000 -1.010000
vt 0.617352 0.261505
vt 0.417633 0.261505
vt 0.417633 0.206374
vt 0.617352 0.206375
vt 0.296944 0.819702
vt 0.064640 0.819701
vt 0.064640 0.425812
vt 0.296944 0.425812
vt 0.035602 0.425812
vt 0.392668 0.371766
vt 0.064640 0.376576
vt 0.617352 0.867943
vt 0.417633 0.812812
vt 0.617352 0.812812
vt 0.325982 0.819702
vt 0.642317 0.812812
vt 0.417413 0.261505
vt 0.617352 0.371766
vt 0.617573 0.261505
vt 0.642537 0.261505
vt 0.617352 0.096113
vt 0.417633 0.096113
vt 0.296944 0.868938
vt 0.064640 0.868938
vt 0.325983 0.425812
vt 0.642317 0.371766
vt 0.417633 0.371766
vt 0.035602 0.819701
vt 0.392668 0.812812
vt 0.296944 0.376576
vt 0.417633 0.867942
vt 0.392448 0.261505
vn 0.000000 0.000000 1.000000
vn 0.000000 0.000000 1.000000
vn 0.000000 0.000000 1.000000
vn 0.000000 0.000000 1.000000
vn 0.000000 1.000000 0.000000
vn 0.000000 1.000000 0.000000
vn 0.000000 1.000000 0.000000
vn 0.000000 1.000000 0.000000
vn 0.000000 0.000000 -1.000000
vn 0.000000 0.000000 -1.000000
vn 0.000000 0.000000 -1.000000
vn 0.000000 0.000000 -1.000000
vn -1.000000 0.000000 0.000000
vn -1.000000 0.000000 0.000000
vn -1.000000 0.000000 0.000000
vn -1.000000 0.000000 0.000000
vn -1.000000 0.000000 0.000000
vn -1.000000 0.000000 0.000000
vn 0.000000 0.000000 1.000000
vn 0.000000 0.000000 1.000000
vn 0.000000 0.000000 1.000000
vn 0.000000 0.000000 1.000000
vn 0.000000 -1.000000 0.000400
vn 0.000000 -1.000000 0.000400
vn 0.000000 -1.000000 0.000400
vn 0.000000 -1.000000 0.000400
vn 0.000000 -1.000000 0.000400
vn 0.000000 -1.000000 0.000400
vn 1.000000 0.000000 0.000000
vn 1.000000 0.000000 0.000000
vn 1.000000 0.000000 0.000000
vn 1.000000 0.000000 0.000000
vn 0.000000 0.999998 -0.002001
vn 0.000000 0.999998 -0.002001
vn 0.000000 0.999998 -0.002001
vn 0.000000 0.999998 -0.002001
vn 0.000000 0.000000 -1.000000
vn 0.000000 0.000000 -1.000000
vn 1.000000 0.000000 0.000000
vn 1.000000 0.000000 0.000000
vn 1.000000 0.000000 0.000000
vn 1.000000 0.000000 0.000000
vn 1.000000 0.000000 0.000000
vn 1.000000 0.000000 0.000000
vn -1.000000 0.000000 0.000000
vn -1.000000 0.000000 0.000000
vn -1.000000 0.000000 0.000000
vn -1.000000 0.000000 0.000000
s off
g pCube7
usemtl lambert2SG
f 11/1/1 12/2/2 13/3/3 14/4/4
f 3/5/5 4/6/6 6/7/7 5/8/8
s 1
f 5/8/9 6/7/10 15/11/11 16/30/12
s off
f 10/26/13 16/16/14 7/14/15 1/18/16 11/19/17 14/20/18
f 10/23/19 9/24/20 4/6/21 3/5/22
f 2/27/23 12/2/24 11/1/25 1/18/26 7/14/27 8/13/28
f 9/28/29 15/9/30 6/7/31 4/6/32
f 9/22/33 10/21/34 14/4/35 13/3/36
s 1
f 16/12/12 15/31/11 8/13/37 7/14/38
s off
f 9/10/39 13/32/40 12/17/41 2/27/42 8/13/43 15/29/44
f 10/15/45 3/5/46 5/8/47 16/25/48
