# This file uses centimeters as units for non-parametric coordinates.

mtllib Chocolate.mtl
g default
v -0.505934 0.024843 0.298956
v 0.505934 0.024843 0.298956
v -0.505934 0.070704 0.298956
v 0.505934 0.070704 0.298956
v -0.505934 0.181604 0.298956
v 0.505934 0.181604 0.298956
v -0.505934 0.181604 -0.308165
v 0.505934 0.181604 -0.308165
v -0.505934 0.070704 -0.308165
v 0.505934 0.070704 -0.308165
v -0.505934 0.024843 -0.308165
v 0.505934 0.024843 -0.308165
v -0.516053 0.070704 0.309075
v 0.516053 0.070704 0.309075
v 0.516053 0.181604 0.309075
v -0.516053 0.181604 0.309075
v -0.516053 0.181604 -0.318284
v 0.516053 0.181604 -0.318284
v 0.516053 0.070704 -0.318284
v -0.516053 0.070704 -0.318284
vt 0.142765 0.014216
vt 0.866083 0.014216
vt 0.866083 0.042941
vt 0.142765 0.042941
vt 0.135532 0.049279
vt 0.873316 0.049278
vt 0.873316 0.118740
vt 0.135532 0.118740
vt 0.142765 0.125078
vt 0.866084 0.125078
vt 0.866084 0.505344
vt 0.142765 0.505345
vt 0.142765 0.587481
vt 0.952592 0.511682
vt 0.873317 0.511682
vt 0.135532 0.511682
vt 0.056257 0.118740
vt 0.135532 0.581143
vt 0.873317 0.581144
vt 0.016240 0.505345
vt 0.056257 0.511682
vt 0.866084 0.587481
vt 0.866084 0.616206
vt 0.142765 0.616206
vt 0.049024 0.125078
vt 0.049023 0.505345
vt 0.866083 0.996473
vt 0.142765 0.996473
vt 0.992608 0.125078
vt 0.992607 0.505345
vt 0.959825 0.505345
vt 0.959825 0.125078
vt 0.952591 0.118740
vt 0.016242 0.125078
vn 0.000000 0.000000 1.000000
vn 0.000000 0.000000 1.000000
vn 0.000000 0.000000 1.000000
vn 0.000000 0.000000 1.000000
vn 0.000000 0.000000 1.000000
vn 0.000000 0.000000 1.000000
vn 0.000000 0.000000 1.000000
vn 0.000000 0.000000 1.000000
vn 0.000000 1.000000 0.000000
vn 0.000000 1.000000 0.000000
vn 0.000000 1.000000 -0.000000
vn 0.000000 1.000000 -0.000000
vn 0.000000 0.000000 -1.000000
vn 0.000000 0.000000 -1.000000
vn 0.000000 0.000000 -1.000000
vn 0.000000 0.000000 -1.000000
vn 0.000000 0.000000 -1.000000
vn 0.000000 0.000000 -1.000000
vn 0.000000 0.000000 -1.000000
vn 0.000000 0.000000 -1.000000
vn 0.000000 -1.000000 0.000000
vn 0.000000 -1.000000 0.000000
vn 0.000000 -1.000000 0.000000
vn 0.000000 -1.000000 0.000000
vn 1.000000 0.000000 0.000000
vn 1.000000 0.000000 0.000000
vn 1.000000 0.000000 0.000000
vn 1.000000 0.000000 0.000000
vn 1.000000 0.000000 0.000000
vn 1.000000 0.000000 0.000000
vn 1.000000 0.000000 0.000000
vn 1.000000 0.000000 0.000000
vn -1.000000 0.000000 0.000000
vn -1.000000 0.000000 0.000000
vn -1.000000 0.000000 0.000000
vn -1.000000 0.000000 0.000000
vn -1.000000 0.000000 0.000000
vn -1.000000 0.000000 0.000000
vn -1.000000 0.000000 0.000000
vn -1.000000 0.000000 0.000000
vn 0.000000 -1.000000 -0.000000
vn 0.000000 -1.000000 -0.000000
vn 0.000000 -1.000000 -0.000000
vn 0.000000 -1.000000 -0.000000
vn 0.000000 1.000000 0.000000
vn 0.000000 1.000000 0.000000
vn 0.000000 1.000000 -0.000000
vn 0.000000 1.000000 -0.000000
vn 0.000000 -1.000000 0.000000
vn 0.000000 -1.000000 0.000000
vn 0.000000 -1.000000 0.000000
vn 0.000000 -1.000000 0.000000
s off
g Chocolate Shelf:AyamFly237:ALL:Chocolate27:group Shelf:AyamFly237:ALL:pasted__pasted__group8 Shelf:AyamFly237:ALL:pasted__group11 Shelf:AyamFly237:ALL:group46
usemtl lambert4SG
f 1/1/1 2/2/2 4/3/3 3/4/4
f 13/5/5 14/6/6 15/7/7 16/8/8
s 1
f 5/9/9 6/10/10 8/11/11 7/12/12
s off
f 17/16/13 18/15/14 19/19/15 20/18/16
f 9/13/17 10/22/18 12/23/19 11/24/20
f 11/24/21 12/23/22 2/27/23 1/28/24
f 2/29/25 12/30/26 10/31/27 4/32/28
f 14/33/29 19/14/30 18/15/31 15/7/32
f 11/20/33 1/34/34 3/25/35 9/26/36
f 20/21/37 13/17/38 16/8/39 17/16/40
s 2
f 3/4/41 4/3/42 14/6/43 13/5/44
s 1
f 6/10/10 5/9/9 16/8/45 15/7/46
f 7/12/12 8/11/11 18/15/47 17/16/48
s 2
f 10/22/49 9/13/50 20/18/51 19/19/52
f 4/32/42 10/31/49 19/14/52 14/33/43
s 1
f 8/11/11 6/10/10 15/7/46 18/15/47
s 2
f 9/26/50 3/25/41 13/17/44 20/21/51
s 1
f 5/9/9 7/12/12 17/16/48 16/8/45
