# This file uses centimeters as units for non-parametric coordinates.

mtllib doorStand.mtl
g default
v -1.418307 0.096088 1.493168
v 1.487296 0.096088 1.493168
v -1.418307 0.375553 1.493168
v 1.487296 0.375553 1.493168
v -1.418307 0.375553 -1.493168
v 1.487296 0.375553 -1.493168
v -1.418307 0.096088 -1.493168
v 1.487296 0.096088 -1.493168
v 0.254809 0.248520 -0.116429
v 0.175837 0.248520 -0.206187
v 0.064486 0.248520 -0.248709
v -0.053736 0.248520 -0.234255
v -0.151746 0.248520 -0.166136
v -0.207090 0.248520 -0.059957
v -0.207090 0.248520 0.059957
v -0.151746 0.248520 0.166136
v -0.053736 0.248520 0.234255
v 0.064486 0.248520 0.248709
v 0.175837 0.248520 0.206187
v 0.254809 0.248520 0.116430
v 0.283309 0.248520 0.000000
v 0.254809 6.846073 -0.116429
v 0.175837 6.846073 -0.206187
v 0.064486 6.846073 -0.248709
v -0.053736 6.846073 -0.234255
v -0.151746 6.846073 -0.166136
v -0.207090 6.846073 -0.059957
v -0.207090 6.846073 0.059957
v -0.151746 6.846073 0.166136
v -0.053736 6.846073 0.234255
v 0.064486 6.846073 0.248709
v 0.175837 6.846073 0.206187
v 0.254809 6.846073 0.116430
v 0.283309 6.846073 0.000000
v 0.034495 0.248520 0.000000
v 0.034495 6.846073 0.000000
v -0.859494 6.030504 0.716062
v 0.974917 6.030504 0.716062
v -0.859494 6.351496 0.981722
v 0.974917 6.351496 0.981722
v -0.859494 7.615168 -0.545151
v 0.974917 7.615168 -0.545151
v -0.859494 7.294176 -0.810810
v 0.974917 7.294176 -0.810810
vt 0.375000 0.000000
vt 0.625000 0.000000
vt 0.625000 0.250000
vt 0.375000 0.250000
vt 0.625000 0.500000
vt 0.375000 0.500000
vt 0.625000 0.750000
vt 0.375000 0.750000
vt 0.625000 1.000000
vt 0.375000 1.000000
vt 0.875000 0.000000
vt 0.875000 0.250000
vt 0.125000 0.000000
vt 0.125000 0.250000
vt 0.375000 0.312500
vt 0.394231 0.312500
vt 0.394231 0.688440
vt 0.375000 0.688440
vt 0.413462 0.312500
vt 0.413462 0.688440
vt 0.432692 0.312500
vt 0.432692 0.688440
vt 0.451923 0.312500
vt 0.451923 0.688440
vt 0.471154 0.312500
vt 0.471154 0.688440
vt 0.490385 0.312500
vt 0.490385 0.688440
vt 0.509615 0.312500
vt 0.509615 0.688440
vt 0.528846 0.312500
vt 0.528846 0.688440
vt 0.548077 0.312500
vt 0.548077 0.688440
vt 0.567308 0.312500
vt 0.567308 0.688440
vt 0.586539 0.312500
vt 0.586539 0.688440
vt 0.605769 0.312500
vt 0.605769 0.688440
vt 0.625000 0.312500
vt 0.625000 0.688440
vt 0.588760 0.027659
vt 0.638353 0.083637
vt 0.500000 0.150000
vt 0.518834 0.001139
vt 0.444593 0.010154
vt 0.383045 0.052637
vt 0.348290 0.118857
vt 0.348290 0.193643
vt 0.383045 0.259863
vt 0.444593 0.302346
vt 0.518834 0.311361
vt 0.588760 0.284841
vt 0.638353 0.228863
vt 0.656250 0.156250
vt 0.638353 0.916363
vt 0.588760 0.972341
vt 0.500000 0.837500
vt 0.518834 0.998861
vt 0.444593 0.989846
vt 0.383045 0.947363
vt 0.348290 0.881143
vt 0.348290 0.806357
vt 0.383045 0.740137
vt 0.444593 0.697654
vt 0.518834 0.688639
vt 0.588760 0.715159
vt 0.638353 0.771137
vt 0.656250 0.843750
vt 0.375000 0.000000
vt 0.625000 0.000000
vt 0.625000 0.250000
vt 0.375000 0.250000
vt 0.625000 0.500000
vt 0.375000 0.500000
vt 0.625000 0.750000
vt 0.375000 0.750000
vt 0.625000 1.000000
vt 0.375000 1.000000
vt 0.875000 0.000000
vt 0.875000 0.250000
vt 0.125000 0.000000
vt 0.125000 0.250000
vn 0.000000 0.000000 1.000000
vn 0.000000 0.000000 1.000000
vn 0.000000 0.000000 1.000000
vn 0.000000 0.000000 1.000000
vn 0.000000 1.000000 0.000000
vn 0.000000 1.000000 0.000000
vn 0.000000 1.000000 0.000000
vn 0.000000 1.000000 0.000000
vn 0.000000 0.000000 -1.000000
vn 0.000000 0.000000 -1.000000
vn 0.000000 0.000000 -1.000000
vn 0.000000 0.000000 -1.000000
vn 0.000000 -1.000000 0.000000
vn 0.000000 -1.000000 0.000000
vn 0.000000 -1.000000 0.000000
vn 0.000000 -1.000000 0.000000
vn 1.000000 0.000000 0.000000
vn 1.000000 0.000000 0.000000
vn 1.000000 0.000000 0.000000
vn 1.000000 0.000000 0.000000
vn -1.000000 0.000000 0.000000
vn -1.000000 0.000000 0.000000
vn -1.000000 0.000000 0.000000
vn -1.000000 0.000000 0.000000
vn 0.750775 0.000000 -0.660558
vn 0.750775 0.000000 -0.660558
vn 0.750775 0.000000 -0.660558
vn 0.750775 0.000000 -0.660558
vn 0.570717 0.000000 -0.821147
vn 0.121358 0.000000 -0.992609
vn 0.121358 0.000000 -0.992609
vn 0.570717 0.000000 -0.821147
vn 0.121358 0.000000 -0.992609
vn -0.356746 0.000000 -0.934201
vn -0.356746 0.000000 -0.934201
vn 0.121358 0.000000 -0.992609
vn -0.356746 0.000000 -0.934201
vn -0.750774 0.000000 -0.660559
vn -0.750774 0.000000 -0.660559
vn -0.356746 0.000000 -0.934201
vn -0.750774 0.000000 -0.660559
vn -0.971323 0.000000 -0.237765
vn -0.971323 0.000000 -0.237765
vn -0.750774 0.000000 -0.660559
vn -0.971323 0.000000 -0.237765
vn -0.971323 0.000000 0.237765
vn -0.971323 0.000000 0.237765
vn -0.971323 0.000000 -0.237765
vn -0.971323 0.000000 0.237765
vn -0.750774 0.000000 0.660559
vn -0.750774 0.000000 0.660559
vn -0.971323 0.000000 0.237765
vn -0.750774 0.000000 0.660559
vn -0.356746 0.000000 0.934201
vn -0.356746 0.000000 0.934201
vn -0.750774 0.000000 0.660559
vn -0.356746 0.000000 0.934201
vn 0.121358 0.000000 0.992609
vn 0.121358 0.000000 0.992609
vn -0.356746 0.000000 0.934201
vn 0.121358 0.000000 0.992609
vn 0.570717 0.000000 0.821147
vn 0.570717 0.000000 0.821147
vn 0.121358 0.000000 0.992609
vn 0.570717 0.000000 0.821147
vn 0.886768 0.000000 0.462215
vn 0.886768 0.000000 0.462215
vn 0.570717 0.000000 0.821147
vn 0.886768 0.000000 0.462215
vn 1.000000 0.000000 0.000000
vn 1.000000 0.000000 0.000000
vn 0.886768 0.000000 0.462215
vn 1.000000 0.000000 0.000000
vn 0.886768 0.000000 -0.462215
vn 0.886768 0.000000 -0.462215
vn 1.000000 0.000000 0.000000
vn 0.000000 -1.000000 0.000000
vn 0.000000 -1.000000 0.000000
vn 0.000000 -1.000000 0.000000
vn 0.000000 -1.000000 0.000000
vn 0.000000 -1.000000 0.000000
vn 0.000000 -1.000000 0.000000
vn 0.000000 -1.000000 0.000000
vn 0.000000 -1.000000 0.000000
vn 0.000000 -1.000000 0.000000
vn 0.000000 -1.000000 0.000000
vn 0.000000 -1.000000 0.000000
vn 0.000000 -1.000000 0.000000
vn 0.000000 -1.000000 0.000000
vn 0.000000 -1.000000 0.000000
vn 0.000000 -1.000000 0.000000
vn 0.000000 -1.000000 0.000000
vn 0.000000 -1.000000 0.000000
vn 0.000000 -1.000000 0.000000
vn 0.000000 -1.000000 0.000000
vn 0.000000 -1.000000 0.000000
vn 0.000000 -1.000000 0.000000
vn 0.000000 -1.000000 0.000000
vn 0.000000 -1.000000 0.000000
vn 0.000000 -1.000000 0.000000
vn 0.000000 -1.000000 0.000000
vn 0.000000 -1.000000 0.000000
vn 0.000000 -1.000000 0.000000
vn 0.000000 -1.000000 0.000000
vn 0.000000 -1.000000 0.000000
vn 0.000000 -1.000000 0.000000
vn 0.000000 -1.000000 0.000000
vn 0.000000 -1.000000 0.000000
vn 0.000000 -1.000000 0.000000
vn 0.000000 -1.000000 0.000000
vn 0.000000 -1.000000 0.000000
vn 0.000000 -1.000000 0.000000
vn 0.000000 -1.000000 0.000000
vn 0.000000 -1.000000 0.000000
vn 0.000000 -1.000000 0.000000
vn 0.000000 1.000000 0.000000
vn 0.000000 1.000000 0.000000
vn 0.000000 1.000000 0.000000
vn 0.000000 1.000000 0.000000
vn 0.000000 1.000000 0.000000
vn 0.000000 1.000000 0.000000
vn 0.000000 1.000000 0.000000
vn 0.000000 1.000000 0.000000
vn 0.000000 1.000000 0.000000
vn 0.000000 1.000000 0.000000
vn 0.000000 1.000000 0.000000
vn 0.000000 1.000000 0.000000
vn 0.000000 1.000000 0.000000
vn 0.000000 1.000000 0.000000
vn 0.000000 1.000000 0.000000
vn 0.000000 1.000000 0.000000
vn 0.000000 1.000000 0.000000
vn 0.000000 1.000000 0.000000
vn 0.000000 1.000000 0.000000
vn 0.000000 1.000000 0.000000
vn 0.000000 1.000000 0.000000
vn 0.000000 1.000000 0.000000
vn 0.000000 1.000000 0.000000
vn 0.000000 1.000000 0.000000
vn 0.000000 1.000000 0.000000
vn 0.000000 1.000000 0.000000
vn 0.000000 1.000000 0.000000
vn 0.000000 1.000000 0.000000
vn 0.000000 1.000000 0.000000
vn 0.000000 1.000000 0.000000
vn 0.000000 1.000000 0.000000
vn 0.000000 1.000000 0.000000
vn 0.000000 1.000000 0.000000
vn 0.000000 1.000000 0.000000
vn 0.000000 1.000000 0.000000
vn 0.000000 1.000000 0.000000
vn 0.000000 1.000000 0.000000
vn 0.000000 1.000000 0.000000
vn 0.000000 1.000000 0.000000
vn 0.000000 -0.637583 0.770381
vn 0.000000 -0.637583 0.770381
vn 0.000000 -0.637583 0.770381
vn 0.000000 -0.637583 0.770381
vn 0.000000 0.770381 0.637584
vn 0.000000 0.770381 0.637584
vn 0.000000 0.770381 0.637584
vn 0.000000 0.770381 0.637584
vn 0.000000 0.637583 -0.770381
vn 0.000000 0.637583 -0.770381
vn 0.000000 0.637583 -0.770381
vn 0.000000 0.637583 -0.770381
vn 0.000000 -0.770381 -0.637584
vn 0.000000 -0.770381 -0.637584
vn 0.000000 -0.770381 -0.637584
vn 0.000000 -0.770381 -0.637584
vn 1.000000 0.000000 0.000000
vn 1.000000 0.000000 0.000000
vn 1.000000 0.000000 0.000000
vn 1.000000 0.000000 0.000000
vn -1.000000 -0.000000 0.000000
vn -1.000000 -0.000000 0.000000
vn -1.000000 -0.000000 0.000000
vn -1.000000 -0.000000 0.000000
s off
g polySurface1
usemtl lambert2SG
f 1/1/1 2/2/2 4/3/3 3/4/4
f 3/4/5 4/3/6 6/5/7 5/6/8
f 5/6/9 6/5/10 8/7/11 7/8/12
f 7/8/13 8/7/14 2/9/15 1/10/16
f 2/2/17 8/11/18 6/12/19 4/3/20
f 7/13/21 1/1/22 3/4/23 5/14/24
f 9/15/25 10/16/26 23/17/27 22/18/28
f 10/16/29 11/19/30 24/20/31 23/17/32
f 11/19/33 12/21/34 25/22/35 24/20/36
f 12/21/37 13/23/38 26/24/39 25/22/40
f 13/23/41 14/25/42 27/26/43 26/24/44
f 14/25/45 15/27/46 28/28/47 27/26/48
f 15/27/49 16/29/50 29/30/51 28/28/52
f 16/29/53 17/31/54 30/32/55 29/30/56
f 17/31/57 18/33/58 31/34/59 30/32/60
f 18/33/61 19/35/62 32/36/63 31/34/64
f 19/35/65 20/37/66 33/38/67 32/36/68
f 20/37/69 21/39/70 34/40/71 33/38/72
f 21/39/73 9/41/74 22/42/75 34/40/76
f 10/43/77 9/44/78 35/45/79
f 11/46/80 10/43/81 35/45/82
f 12/47/83 11/46/84 35/45/85
f 13/48/86 12/47/87 35/45/88
f 14/49/89 13/48/90 35/45/91
f 15/50/92 14/49/93 35/45/94
f 16/51/95 15/50/96 35/45/97
f 17/52/98 16/51/99 35/45/100
f 18/53/101 17/52/102 35/45/103
f 19/54/104 18/53/105 35/45/106
f 20/55/107 19/54/108 35/45/109
f 21/56/110 20/55/111 35/45/112
f 9/44/113 21/56/114 35/45/115
f 22/57/116 23/58/117 36/59/118
f 23/58/119 24/60/120 36/59/121
f 24/60/122 25/61/123 36/59/124
f 25/61/125 26/62/126 36/59/127
f 26/62/128 27/63/129 36/59/130
f 27/63/131 28/64/132 36/59/133
f 28/64/134 29/65/135 36/59/136
f 29/65/137 30/66/138 36/59/139
f 30/66/140 31/67/141 36/59/142
f 31/67/143 32/68/144 36/59/145
f 32/68/146 33/69/147 36/59/148
f 33/69/149 34/70/150 36/59/151
f 34/70/152 22/57/153 36/59/154
f 37/71/155 38/72/156 40/73/157 39/74/158
f 39/74/159 40/73/160 42/75/161 41/76/162
f 41/76/163 42/75/164 44/77/165 43/78/166
f 43/78/167 44/77/168 38/79/169 37/80/170
f 38/72/171 44/81/172 42/82/173 40/73/174
f 43/83/175 37/71/176 39/74/177 41/84/178
