# This file uses centimeters as units for non-parametric coordinates.

mtllib DoorLor.mtl
g default
v -9.179737 0.342644 2.113157
v -3.239830 0.342644 2.113157
v -9.179737 11.421193 2.113157
v -3.239830 11.421193 2.113157
v -9.179737 11.421193 1.586507
v -3.239830 11.421193 1.586507
v -9.179737 0.342644 1.586507
v -3.239830 0.342644 1.586507
vt 0.274628 0.027134
vt 0.691508 0.027134
vt 0.691508 0.993287
vt 0.274628 0.993287
vt 0.643131 0.976621
vt 0.312408 0.981268
vt 0.311661 0.928082
vt 0.642383 0.923435
vt 0.277002 0.020450
vt 0.692863 0.020888
vt 0.691841 0.992843
vt 0.275980 0.992406
vt 0.642742 0.091866
vt 0.311988 0.092617
vt 0.311880 0.045228
vt 0.642634 0.044477
vt 0.270189 0.062409
vt 0.327928 0.062409
vt 0.327928 0.958012
vt 0.270189 0.958012
vt 0.634874 0.039039
vt 0.676460 0.039039
vt 0.676460 0.976178
vt 0.634874 0.976178
vn 0.000000 0.000000 1.000000
vn 0.000000 0.000000 1.000000
vn 0.000000 0.000000 1.000000
vn 0.000000 0.000000 1.000000
vn 0.000000 1.000000 0.000000
vn 0.000000 1.000000 0.000000
vn 0.000000 1.000000 0.000000
vn 0.000000 1.000000 0.000000
vn 0.000000 0.000000 -1.000000
vn 0.000000 0.000000 -1.000000
vn 0.000000 0.000000 -1.000000
vn 0.000000 0.000000 -1.000000
vn 0.000000 -1.000000 0.000000
vn 0.000000 -1.000000 0.000000
vn 0.000000 -1.000000 0.000000
vn 0.000000 -1.000000 0.000000
vn 1.000000 0.000000 0.000000
vn 1.000000 0.000000 0.000000
vn 1.000000 0.000000 0.000000
vn 1.000000 0.000000 0.000000
vn -1.000000 0.000000 0.000000
vn -1.000000 0.000000 0.000000
vn -1.000000 0.000000 0.000000
vn -1.000000 0.000000 0.000000
s off
g pCube1
usemtl lambert2SG
f 1/1/1 2/2/2 4/3/3 3/4/4
f 3/5/5 4/6/6 6/7/7 5/8/8
f 5/9/9 6/10/10 8/11/11 7/12/12
f 7/13/13 8/14/14 2/15/15 1/16/16
f 2/17/17 8/18/18 6/19/19 4/20/20
f 7/21/21 1/22/22 3/23/23 5/24/24
