# This file uses centimeters as units for non-parametric coordinates.

mtllib Elevator.mtl
g default
v -5.033557 -0.147163 5.069807
v 5.033557 -0.147163 5.069807
v -5.033557 11.772348 5.069807
v 5.033557 11.772348 5.069807
v -5.033557 11.772348 -5.069807
v 5.033557 11.772348 -5.069807
v -5.033557 -0.147163 -5.069807
v 5.033557 -0.147163 -5.069807
v 5.033557 6.624106 5.069807
v -5.033557 6.624106 5.069807
v -5.033557 6.624106 -5.069807
v 5.033557 6.624106 -5.069807
v 5.033557 11.772348 -3.030681
v -5.033557 11.772348 -3.030681
v -5.033557 6.624106 -3.030681
v -5.033557 -0.147163 -3.030681
v 5.033557 -0.147163 -3.030681
v 5.033556 6.624106 -3.030681
v 5.033557 11.772348 2.942930
v -5.033557 11.772348 2.942930
v -5.033557 6.624106 2.942930
v -5.033557 -0.147163 2.942930
v 5.033557 -0.147163 2.942930
v 5.033556 6.624106 2.942930
v 5.033557 -0.108362 5.069807
v -5.033557 -0.108362 5.069807
v -5.033557 -0.108362 2.942930
v -5.033557 -0.108362 -3.030681
v -5.033557 -0.108362 -5.069807
v 5.033557 -0.108362 -5.069807
v 5.033557 -0.108362 -3.030681
v 5.033557 -0.108362 2.942930
v -4.995477 -0.108362 2.942930
v -4.995477 6.624106 2.942930
v -4.995477 -0.108362 -3.030681
v -4.995477 6.624106 -3.030681
vt 0.375000 0.000000
vt 0.625000 0.000000
vt 0.375000 0.250000
vt 0.625000 0.250000
vt 0.375000 0.500000
vt 0.625000 0.500000
vt 0.375000 0.750000
vt 0.625000 0.750000
vt 0.375000 1.000000
vt 0.625000 1.000000
vt 0.875000 0.000000
vt 0.875000 0.250000
vt 0.125000 0.000000
vt 0.125000 0.250000
vt 0.625000 0.142021
vt 0.375000 0.142021
vt 0.125000 0.142021
vt 0.375000 0.607979
vt 0.625000 0.607979
vt 0.875000 0.142021
vt 0.625000 0.378307
vt 0.753307 0.250000
vt 0.246693 0.250000
vt 0.375000 0.378307
vt 0.246693 0.142021
vt 0.246693 0.000000
vt 0.375000 0.871693
vt 0.625000 0.871693
vt 0.753307 0.000000
vt 0.753307 0.142021
vt 0.625000 0.281557
vt 0.656557 0.250000
vt 0.343443 0.250000
vt 0.375000 0.281557
vt 0.343443 0.142021
vt 0.343443 0.000000
vt 0.375000 0.968443
vt 0.625000 0.968443
vt 0.656557 0.000000
vt 0.656557 0.142021
vt 0.625000 0.000814
vt 0.375000 0.000814
vt 0.343443 0.000814
vt 0.246693 0.000814
vt 0.125000 0.000814
vt 0.375000 0.749186
vt 0.625000 0.749186
vt 0.875000 0.000814
vt 0.753307 0.000814
vt 0.656557 0.000814
vt 0.656557 0.142021
vt 0.656557 0.000814
vt 0.753307 0.000814
vt 0.753307 0.142021
vn 0.000000 0.000000 1.000000
vn 0.000000 0.000000 1.000000
vn 0.000000 0.000000 1.000000
vn 0.000000 0.000000 1.000000
vn 0.000000 1.000000 0.000000
vn 0.000000 1.000000 0.000000
vn 0.000000 1.000000 0.000000
vn 0.000000 1.000000 0.000000
vn 0.000000 1.000000 0.000000
vn 0.000000 1.000000 0.000000
vn 0.000000 1.000000 0.000000
vn 0.000000 1.000000 0.000000
vn 0.000000 0.000000 -1.000000
vn 0.000000 0.000000 -1.000000
vn 0.000000 0.000000 -1.000000
vn 0.000000 0.000000 -1.000000
vn 0.000000 -1.000000 0.000000
vn 0.000000 -1.000000 0.000000
vn 0.000000 -1.000000 0.000000
vn 0.000000 -1.000000 0.000000
vn 0.000000 -1.000000 0.000000
vn 0.000000 -1.000000 0.000000
vn 0.000000 -1.000000 0.000000
vn 0.000000 -1.000000 0.000000
vn 1.000000 0.000000 0.000000
vn 1.000000 0.000000 0.000000
vn 1.000000 0.000000 0.000000
vn 1.000000 0.000000 -0.000000
vn -1.000000 0.000000 0.000000
vn -1.000000 0.000000 0.000000
vn -1.000000 0.000000 0.000000
vn -1.000000 0.000000 0.000000
vn -1.000000 0.000000 0.000000
vn -1.000000 0.000000 0.000000
vn -1.000000 0.000000 0.000000
vn -1.000000 0.000000 0.000000
vn -1.000000 0.000000 0.000000
vn -1.000000 0.000000 0.000000
vn -1.000000 0.000000 0.000000
vn -1.000000 0.000000 0.000000
vn 1.000000 0.000000 0.000000
vn 1.000000 0.000000 -0.000000
vn 1.000000 0.000000 -0.000000
vn 1.000000 0.000000 -0.000000
vn 1.000000 -0.000000 0.000000
vn 1.000000 -0.000000 0.000000
vn 1.000000 0.000000 0.000000
vn 1.000000 0.000000 0.000000
vn -1.000000 0.000000 0.000000
vn -1.000000 0.000000 0.000000
vn -1.000000 0.000000 0.000000
vn -1.000000 0.000000 0.000000
vn 1.000000 0.000000 0.000000
vn 1.000000 0.000000 0.000000
vn 1.000000 0.000000 0.000000
vn 1.000000 0.000000 0.000000
vn 0.000000 0.000000 1.000000
vn 0.000000 0.000000 1.000000
vn 0.000000 0.000000 1.000000
vn 0.000000 0.000000 1.000000
vn 0.000000 0.000000 -1.000000
vn 0.000000 0.000000 -1.000000
vn 0.000000 0.000000 -1.000000
vn 0.000000 0.000000 -1.000000
vn 1.000000 0.000000 0.000000
vn 1.000000 0.000000 0.000000
vn 1.000000 0.000000 0.000000
vn 1.000000 0.000000 0.000000
vn 0.000000 0.000000 -1.000000
vn 0.000000 0.000000 -1.000000
vn 0.000000 0.000000 -1.000000
vn 0.000000 0.000000 -1.000000
vn 0.000000 1.000000 0.000000
vn 0.000000 1.000000 0.000000
vn 0.000000 1.000000 0.000000
vn 0.000000 1.000000 0.000000
vn 0.000000 0.000000 1.000000
vn 0.000000 0.000000 1.000000
vn 0.000000 0.000000 1.000000
vn 0.000000 0.000000 1.000000
vn 0.000000 -1.000000 0.000000
vn 0.000000 -1.000000 0.000000
vn 0.000000 -1.000000 0.000000
vn 0.000000 -1.000000 0.000000
s 1
g pCube1
usemtl lambert2SG
f 1/1/1 2/2/2 26/42/3
f 26/42/3 2/2/2 25/41/4
s 2
f 3/3/5 4/4/6 20/34/7
f 4/4/6 19/31/8 20/34/7
f 20/34/7 19/31/8 14/24/9
f 19/31/8 13/21/10 14/24/9
f 13/21/10 6/6/11 14/24/9
f 6/6/11 5/5/12 14/24/9
s 3
f 29/46/13 30/47/14 7/7/15
f 7/7/15 30/47/14 8/8/16
s 4
f 2/10/17 1/9/18 23/38/19
f 1/9/18 22/37/20 23/38/19
f 23/38/19 22/37/20 17/28/21
f 22/37/20 16/27/22 17/28/21
f 16/27/22 7/7/23 17/28/21
f 7/7/23 8/8/24 17/28/21
s 5
f 2/2/25 23/39/26 25/41/27
f 25/41/27 23/39/26 32/50/28
s 6
f 22/36/29 1/1/30 27/43/31
f 27/43/31 1/1/30 26/42/32
f 10/16/33 3/3/34 21/35/35
f 3/3/34 20/33/36 21/35/35
f 21/35/35 20/33/36 15/25/37
f 20/33/36 14/23/38 15/25/37
f 14/23/38 5/14/39 15/25/37
f 5/14/39 11/17/40 15/25/37
s 5
f 4/4/41 9/15/42 19/32/43
f 9/15/42 24/40/44 19/32/43
f 19/32/43 24/40/44 13/22/45
f 24/40/44 18/30/46 13/22/45
f 18/30/46 12/20/47 13/22/45
f 12/20/47 6/12/48 13/22/45
s 6
f 7/13/49 16/26/50 29/45/51
f 29/45/51 16/26/50 28/44/52
s 5
f 31/49/53 17/29/54 30/48/55
f 30/48/55 17/29/54 8/11/56
s 6
f 16/26/50 22/36/29 28/44/52
f 28/44/52 22/36/29 27/43/31
s 5
f 32/50/28 23/39/26 31/49/53
f 31/49/53 23/39/26 17/29/54
s 1
f 26/42/3 25/41/4 10/16/57
f 25/41/4 9/15/58 10/16/57
f 10/16/57 9/15/58 3/3/59
f 9/15/58 4/4/60 3/3/59
s 6
f 26/42/32 10/16/33 27/43/31
f 10/16/33 21/35/35 27/43/31
f 27/43/31 21/35/35 28/44/52
f 21/35/35 15/25/37 28/44/52
f 15/25/37 11/17/40 28/44/52
f 11/17/40 29/45/51 28/44/52
s 3
f 30/47/14 29/46/13 12/19/61
f 29/46/13 11/18/62 12/19/61
f 12/19/61 11/18/62 6/6/63
f 11/18/62 5/5/64 6/6/63
s 5
f 18/30/46 31/49/53 12/20/47
f 12/20/47 31/49/53 30/48/55
s 11
f 34/51/65 33/52/66 36/54/67
f 36/54/67 33/52/66 35/53/68
s 5
f 25/41/27 32/50/28 9/15/42
f 9/15/42 32/50/28 24/40/44
s 12
f 24/40/69 32/50/70 34/51/71
f 34/51/71 32/50/70 33/52/72
s 13
f 32/50/73 31/49/74 33/52/75
f 33/52/75 31/49/74 35/53/76
s 14
f 31/49/77 18/30/78 35/53/79
f 35/53/79 18/30/78 36/54/80
s 15
f 18/30/81 24/40/82 36/54/83
f 36/54/83 24/40/82 34/51/84
