# This file uses centimeters as units for non-parametric coordinates.

mtllib Exterior Walls Top.mtl
g default
v 20.000000 0.368672 14.999999
v 20.000000 3.131328 15.000000
v -20.000000 0.368672 14.999999
v -20.000000 3.131328 15.000000
v -3.463813 3.131328 14.999999
v 3.463814 3.131328 15.000000
v -3.463813 0.368672 14.999999
v 3.463814 0.368672 15.000000
vt 17.425413 0.755843
vt 21.982252 0.757128
vt 17.425434 1.594734
vt 21.982304 1.598124
vt -14.688190 0.760049
vt -10.131371 0.755334
vt -14.688341 1.601397
vt -10.131460 1.594226
vn 0.000000 0.000000 -1.000000
vn 0.000000 0.000000 -1.000000
vn 0.000000 0.000000 -1.000000
vn 0.000000 0.000000 -1.000000
vn 0.000000 0.000000 -1.000000
vn 0.000000 0.000000 -1.000000
vn 0.000000 0.000000 -1.000000
vn 0.000000 0.000000 -1.000000
vn 0.000000 0.000000 -1.000000
vn 0.000000 0.000000 -1.000000
vn 0.000000 0.000000 -1.000000
vn 0.000000 0.000000 -1.000000
s off
g White_Glass:pPlane6
usemtl initialShadingGroup
f 4/1/1 5/2/2 3/3/3
f 3/3/4 5/2/5 7/4/6
f 6/5/7 2/6/8 8/7/9
f 8/7/10 2/6/11 1/8/12
g default
v -20.000000 0.368672 15.050001
v -20.000000 3.131328 15.050000
v 20.000000 0.368672 15.050001
v 20.000000 3.131328 15.050000
v 3.463813 3.131328 15.050001
v -3.463814 3.131328 15.050000
v 3.463813 0.368672 15.050001
v -3.463814 0.368672 15.050000
vt 17.425413 0.755843
vt 21.982252 0.757128
vt 17.425434 1.594734
vt 21.982304 1.598124
vt -14.688190 0.760049
vt -10.131371 0.755334
vt -14.688341 1.601397
vt -10.131460 1.594226
vn 0.000000 0.000000 1.000000
vn 0.000000 0.000000 1.000000
vn 0.000000 0.000000 1.000000
vn 0.000000 0.000000 1.000000
vn 0.000000 0.000000 1.000000
vn 0.000000 0.000000 1.000000
vn 0.000000 0.000000 1.000000
vn 0.000000 0.000000 1.000000
vn 0.000000 0.000000 1.000000
vn 0.000000 0.000000 1.000000
vn 0.000000 0.000000 1.000000
vn 0.000000 0.000000 1.000000
s off
g White_Glass:pPlane7
usemtl initialShadingGroup
f 12/9/13 13/10/14 11/11/15
f 11/11/16 13/10/17 15/12/18
f 14/13/19 10/14/20 16/15/21
f 16/15/22 10/14/23 9/16/24
g default
v 20.049999 4.500000 -15.000000
v 20.049999 4.500000 15.000000
v 20.049999 8.000000 15.000000
v 20.049999 8.000000 -15.000000
v 20.000000 4.500000 15.049999
v -20.000000 4.500000 15.049999
v 20.000000 8.000000 15.049999
v -20.000000 8.000000 15.049999
v 20.000000 4.500000 -15.049999
v -20.000000 4.500000 -15.049999
v 20.000000 8.000000 -15.049999
v -20.000000 8.000000 -15.049999
v -20.049999 4.500000 -15.000000
v -20.049999 4.500000 15.000000
v -20.049999 8.000000 15.000000
v -20.049999 8.000000 -15.000000
vt -10.131342 -0.723051
vt -1.864293 -0.722688
vt -10.131382 0.339731
vt -1.864331 0.340096
vt -21.154112 0.339257
vt -21.154078 -0.723527
vt -10.131382 0.339731
vt -10.131342 -0.723051
vt 9.158392 -0.722544
vt 9.158377 0.340241
vt -1.864341 -0.722690
vt -1.864352 0.340096
vt 9.158369 -0.722543
vt 17.425417 -0.722543
vt 9.158369 0.340241
vt 17.425417 0.340242
vn 1.000000 0.000000 0.000000
vn 1.000000 0.000000 0.000000
vn 1.000000 0.000000 0.000000
vn 1.000000 0.000000 0.000000
vn 0.000000 0.000000 1.000000
vn 0.000000 0.000000 1.000000
vn 0.000000 0.000000 1.000000
vn 0.000000 0.000000 1.000000
vn 0.707103 0.000000 0.707111
vn 0.707103 0.000000 0.707111
vn 0.707103 0.000000 0.707111
vn 0.707103 0.000000 0.707111
vn 0.000000 0.000000 -1.000000
vn 0.000000 0.000000 -1.000000
vn 0.000000 0.000000 -1.000000
vn 0.000000 0.000000 -1.000000
vn -1.000000 0.000000 0.000000
vn -1.000000 0.000000 0.000000
vn -1.000000 0.000000 0.000000
vn -1.000000 0.000000 0.000000
vn -0.707103 0.000000 0.707111
vn -0.707103 0.000000 0.707111
vn -0.707103 0.000000 0.707111
vn -0.707103 0.000000 0.707111
vn -0.707103 0.000000 -0.707111
vn -0.707103 0.000000 -0.707111
vn -0.707103 0.000000 -0.707111
vn -0.707103 0.000000 -0.707111
vn 0.707103 0.000000 -0.707111
vn 0.707103 0.000000 -0.707111
vn 0.707103 0.000000 -0.707111
vn 0.707103 0.000000 -0.707111
s off
g polySurface3
usemtl initialShadingGroup
f 17/19/25 20/17/26 19/18/27 18/20/28
f 22/23/29 21/21/30 23/22/31 24/24/32
f 21/21/33 18/20/34 19/18/35 23/22/36
f 28/27/37 27/25/38 25/26/39 26/28/40
f 30/31/41 31/29/42 32/30/43 29/32/44
f 30/31/45 22/23/46 24/24/47 31/29/48
f 32/30/49 28/27/50 26/28/51 29/32/52
f 27/25/53 20/17/54 17/19/55 25/26/56
