# This file uses centimeters as units for non-parametric coordinates.

mtllib Exterior Walls Middle.mtl
g default
v 20.000000 0.368672 14.999999
v 20.000000 3.131328 15.000000
v -20.000000 0.368672 14.999999
v -20.000000 3.131328 15.000000
v -3.463813 3.131328 14.999999
v 3.463814 3.131328 15.000000
v -3.463813 0.368672 14.999999
v 3.463814 0.368672 15.000000
vt 17.425413 0.755843
vt 21.982252 0.757128
vt 17.425434 1.594734
vt 21.982304 1.598124
vt -14.688190 0.760049
vt -10.131371 0.755334
vt -14.688341 1.601397
vt -10.131460 1.594226
vn 0.000000 0.000000 -1.000000
vn 0.000000 0.000000 -1.000000
vn 0.000000 0.000000 -1.000000
vn 0.000000 0.000000 -1.000000
vn 0.000000 0.000000 -1.000000
vn 0.000000 0.000000 -1.000000
vn 0.000000 0.000000 -1.000000
vn 0.000000 0.000000 -1.000000
vn 0.000000 0.000000 -1.000000
vn 0.000000 0.000000 -1.000000
vn 0.000000 0.000000 -1.000000
vn 0.000000 0.000000 -1.000000
s off
g White_Glass:pPlane6
usemtl initialShadingGroup
f 4/1/1 5/2/2 3/3/3
f 3/3/4 5/2/5 7/4/6
f 6/5/7 2/6/8 8/7/9
f 8/7/10 2/6/11 1/8/12
g default
v -20.000000 0.368672 15.050001
v -20.000000 3.131328 15.050000
v 20.000000 0.368672 15.050001
v 20.000000 3.131328 15.050000
v 3.463813 3.131328 15.050001
v -3.463814 3.131328 15.050000
v 3.463813 0.368672 15.050001
v -3.463814 0.368672 15.050000
vt 17.425413 0.755843
vt 21.982252 0.757128
vt 17.425434 1.594734
vt 21.982304 1.598124
vt -14.688190 0.760049
vt -10.131371 0.755334
vt -14.688341 1.601397
vt -10.131460 1.594226
vn 0.000000 0.000000 1.000000
vn 0.000000 0.000000 1.000000
vn 0.000000 0.000000 1.000000
vn 0.000000 0.000000 1.000000
vn 0.000000 0.000000 1.000000
vn 0.000000 0.000000 1.000000
vn 0.000000 0.000000 1.000000
vn 0.000000 0.000000 1.000000
vn 0.000000 0.000000 1.000000
vn 0.000000 0.000000 1.000000
vn 0.000000 0.000000 1.000000
vn 0.000000 0.000000 1.000000
s off
g White_Glass:pPlane7
usemtl initialShadingGroup
f 12/9/13 13/10/14 11/11/15
f 11/11/16 13/10/17 15/12/18
f 14/13/19 10/14/20 16/15/21
f 16/15/22 10/14/23 9/16/24
g default
v 20.049999 4.500000 -15.000000
v 20.049999 4.500000 15.000000
v 20.049999 3.500000 15.000000
v 20.049999 3.500000 -15.000000
v 20.000000 4.500000 15.049999
v -20.000000 4.500000 15.049999
v 20.000000 3.500000 15.050000
v -20.000004 3.500000 15.050000
v 20.000000 4.500000 -15.049999
v -20.000000 4.500000 -15.049999
v 20.000000 3.500000 -15.049999
v -20.000000 3.500000 -15.049999
v -20.049999 4.500000 -15.000000
v -20.049999 4.500000 15.000000
v -20.049999 3.500000 15.000000
v -20.049999 3.500000 -15.000000
vt -10.131382 0.339731
vt -1.864331 0.340096
vt -10.131407 0.643386
vt -1.864350 0.643750
vt -21.154112 0.339257
vt -10.131382 0.339731
vt -10.131407 0.643386
vt -21.154127 0.642911
vt 9.158373 0.643894
vt -1.864350 0.643750
vt 9.158377 0.340241
vt -1.864352 0.340096
vt 9.158373 0.643894
vt 17.425425 0.643894
vt 9.158369 0.340241
vt 17.425417 0.340242
vn 1.000000 0.000000 0.000000
vn 1.000000 0.000000 0.000000
vn 1.000000 0.000000 0.000000
vn 1.000000 0.000000 0.000000
vn 0.000000 0.000001 1.000000
vn 0.000000 0.000001 1.000000
vn 0.000000 0.000001 1.000000
vn 0.000000 0.000001 1.000000
vn 0.707107 0.000002 0.707107
vn 0.707107 0.000002 0.707107
vn 0.707107 0.000002 0.707107
vn 0.707107 0.000002 0.707107
vn 0.000000 0.000000 -1.000000
vn 0.000000 0.000000 -1.000000
vn 0.000000 0.000000 -1.000000
vn 0.000000 0.000000 -1.000000
vn -1.000000 0.000000 0.000000
vn -1.000000 0.000000 0.000000
vn -1.000000 0.000000 0.000000
vn -1.000000 0.000000 0.000000
vn -0.707120 0.000002 0.707093
vn -0.707120 0.000002 0.707093
vn -0.707120 0.000002 0.707093
vn -0.707120 0.000002 0.707093
vn -0.707107 0.000000 -0.707107
vn -0.707107 0.000000 -0.707107
vn -0.707107 0.000000 -0.707107
vn -0.707107 0.000000 -0.707107
vn 0.707107 0.000000 -0.707107
vn 0.707107 0.000000 -0.707107
vn 0.707107 0.000000 -0.707107
vn 0.707107 0.000000 -0.707107
s off
g polySurface3
usemtl initialShadingGroup
f 20/19/25 17/17/26 18/18/27 19/20/28
f 24/23/29 23/24/30 21/21/31 22/22/32
f 23/24/33 19/20/34 18/18/35 21/21/36
f 25/27/37 27/25/38 28/26/39 26/28/40
f 31/29/41 30/31/42 29/32/43 32/30/44
f 31/29/45 24/23/46 22/22/47 30/31/48
f 29/32/49 26/28/50 28/26/51 32/30/52
f 25/27/53 17/17/54 20/19/55 27/25/56
