# This file uses centimeters as units for non-parametric coordinates.

mtllib Fruitstand.mtl
g default
v 3.522694 0.008361 -1.246682
v 3.522694 2.819612 1.614072
v 3.522694 3.131845 0.567637
v 3.522694 3.132951 -0.567637
v 3.522694 3.556113 -1.246681
v 3.095071 2.700365 1.614072
v 3.095073 2.942029 0.567637
v 3.095073 2.942592 -0.567637
v 3.095071 3.436865 -1.246681
v -0.527390 2.700365 1.614072
v -0.527392 2.942029 0.567637
v -0.527392 2.942592 -0.567637
v -0.527390 3.436865 -1.246681
v -0.955013 2.819612 1.614072
v -0.955013 3.131845 0.567637
v -0.955013 3.132952 -0.567637
v -0.955013 3.556113 -1.246681
v -0.955013 0.008361 -1.246682
v -0.955014 0.008361 2.532667
v 3.522693 0.008361 2.532667
v -0.527392 2.785573 2.532667
v -0.955014 2.904819 2.532667
v 3.095070 2.785573 2.532668
v 3.522693 2.904819 2.532668
vt 0.646227 0.285133
vt 0.646227 0.183716
vt 0.676992 0.183716
vt 0.676992 0.285133
vt 0.646227 0.073689
vt 0.676992 0.073689
vt 0.646227 0.007878
vt 0.676992 0.007878
vt 0.937611 0.183716
vt 0.937611 0.285133
vt 0.937611 0.073689
vt 0.937611 0.007878
vt 0.968376 0.183716
vt 0.968376 0.285133
vt 0.968376 0.073689
vt 0.968376 0.007878
vt 0.496696 0.004731
vt 0.496696 0.380496
vt 0.377525 0.369441
vt 0.241768 0.409948
vt 0.094486 0.410092
vt 0.006392 0.464990
vt 0.006392 0.004731
vt 0.559092 0.868649
vt 0.559092 0.491493
vt 0.881240 0.491493
vt 0.881240 0.868649
vt 0.889340 0.885595
vt 0.628722 0.885595
vt 0.597957 0.897496
vt 0.597957 0.543452
vt 0.920106 0.543452
vt 0.920106 0.897496
vt 0.620850 0.452643
vt 0.620850 0.975014
vt 0.565250 0.953508
vt 0.094259 0.953508
vt 0.038660 0.975014
vt 0.038660 0.452643
vt 0.598950 0.509130
vt 0.952994 0.509130
vt 0.910765 0.576894
vt 0.910655 0.690187
vt 0.879496 0.794615
vt 0.887999 0.886285
vt 0.598950 0.886285
vt 0.968376 0.374160
vt 0.937611 0.374160
vt 0.676992 0.374160
vt 0.646227 0.374160
vn -0.329801 0.912629 0.241535
vn -0.329801 0.912629 0.241535
vn -0.329801 0.912629 0.241535
vn -0.329801 0.912629 0.241535
vn -0.406199 0.913785 0.000672
vn -0.406199 0.913785 0.000672
vn -0.406199 0.913785 0.000672
vn -0.406199 0.913785 0.000672
vn -0.287327 0.793701 0.536173
vn -0.287327 0.793701 0.536173
vn -0.287327 0.793701 0.536173
vn -0.287327 0.793701 0.536173
vn 0.000000 0.974355 0.225017
vn 0.000000 0.974355 0.225017
vn 0.000000 0.974355 0.225017
vn 0.000000 0.974355 0.225017
vn 0.000000 1.000000 0.000496
vn 0.000000 1.000000 0.000496
vn 0.000000 1.000000 0.000496
vn 0.000000 1.000000 0.000496
vn 0.000000 0.808496 0.588502
vn 0.000000 0.808496 0.588502
vn 0.000000 0.808496 0.588502
vn 0.000000 0.808496 0.588502
vn 0.329802 0.912629 0.241535
vn 0.329802 0.912629 0.241535
vn 0.329802 0.912629 0.241535
vn 0.329802 0.912629 0.241535
vn 0.406199 0.913784 0.000672
vn 0.406199 0.913784 0.000672
vn 0.406199 0.913784 0.000672
vn 0.406199 0.913784 0.000672
vn 0.287328 0.793701 0.536172
vn 0.287328 0.793701 0.536172
vn 0.287328 0.793701 0.536172
vn 0.287328 0.793701 0.536172
vn -1.000000 0.000000 -0.000000
vn -1.000000 0.000000 -0.000000
vn -1.000000 0.000000 -0.000000
vn -1.000000 0.000000 -0.000000
vn -1.000000 0.000000 -0.000000
vn -1.000000 0.000000 -0.000000
vn -1.000000 0.000000 -0.000000
vn 0.000000 -1.000000 0.000000
vn 0.000000 -1.000000 0.000000
vn 0.000000 -1.000000 0.000000
vn 0.000000 -1.000000 0.000000
vn -0.000000 0.000000 -1.000000
vn -0.000000 0.000000 -1.000000
vn -0.000000 0.000000 -1.000000
vn -0.000000 0.000000 -1.000000
vn -0.000000 0.000000 -1.000000
vn -0.000000 0.000000 -1.000000
vn 0.000000 0.000000 1.000000
vn 0.000000 0.000000 1.000000
vn 0.000000 0.000000 1.000000
vn 0.000000 0.000000 1.000000
vn 0.000000 0.000000 1.000000
vn 0.000000 0.000000 1.000000
vn 1.000000 -0.000000 0.000000
vn 1.000000 -0.000000 0.000000
vn 1.000000 -0.000000 0.000000
vn 1.000000 -0.000000 0.000000
vn 1.000000 -0.000000 0.000000
vn 1.000000 -0.000000 0.000000
vn 1.000000 -0.000000 0.000000
vn 0.267546 0.959426 -0.088995
vn 0.267546 0.959426 -0.088995
vn 0.267546 0.959426 -0.088995
vn 0.267546 0.959426 -0.088995
vn 0.000000 0.995726 -0.092362
vn 0.000000 0.995725 -0.092362
vn 0.000000 0.995725 -0.092362
vn 0.000000 0.995726 -0.092362
vn -0.267546 0.959426 -0.088995
vn -0.267546 0.959426 -0.088995
vn -0.267546 0.959426 -0.088995
vn -0.267546 0.959426 -0.088995
s 1
g pCube1
usemtl lambert2SG
f 3/2/1 7/3/2 2/1/3
f 2/1/3 7/3/2 6/4/4
s 2
f 3/2/5 4/5/6 7/3/7
f 7/3/7 4/5/6 8/6/8
s 3
f 5/7/9 9/8/10 4/5/11
f 4/5/11 9/8/10 8/6/12
s 4
f 6/4/13 7/3/14 10/10/15
f 10/10/15 7/3/14 11/9/16
s 5
f 7/3/17 8/6/18 11/9/19
f 11/9/19 8/6/18 12/11/20
s 6
f 8/6/21 9/8/22 12/11/23
f 12/11/23 9/8/22 13/12/24
s 7
f 10/10/25 11/9/26 14/14/27
f 14/14/27 11/9/26 15/13/28
s 8
f 11/9/29 12/11/30 15/13/31
f 15/13/31 12/11/30 16/15/32
s 9
f 12/11/33 13/12/34 16/15/35
f 16/15/35 13/12/34 17/16/36
s 10
f 17/22/37 18/23/38 16/21/39
f 18/23/38 19/17/40 16/21/39
f 16/21/39 19/17/40 15/20/41
f 15/20/41 19/17/40 14/19/42
f 19/17/40 22/18/43 14/19/42
s 11
f 19/24/44 18/25/45 20/27/46
f 20/27/46 18/25/45 1/26/47
s 12
f 5/30/48 1/31/49 9/29/50
f 17/33/51 13/28/52 18/32/53
f 1/31/49 18/32/53 9/29/50
f 13/28/52 9/29/50 18/32/53
s 14
f 24/35/54 23/36/55 20/34/56
f 22/38/57 19/39/58 21/37/59
f 20/34/56 23/36/55 19/39/58
f 23/36/55 21/37/59 19/39/58
s 16
f 5/41/60 4/42/61 1/40/62
f 1/40/62 4/42/61 20/46/63
f 4/42/61 3/43/64 20/46/63
f 3/43/64 2/44/65 20/46/63
f 2/44/65 24/45/66 20/46/63
s 17
f 10/10/67 14/14/68 21/48/69
f 21/48/69 14/14/68 22/47/70
s 18
f 6/4/71 10/10/72 23/49/73
f 23/49/73 10/10/72 21/48/74
s 19
f 6/4/75 23/49/76 2/1/77
f 2/1/77 23/49/76 24/50/78
