# This file uses centimeters as units for non-parametric coordinates.

mtllib Head.mtl
g default
v -1.000000 7.000000 1.000000
v 1.000000 7.000000 1.000000
v -1.000000 9.000000 1.000000
v 1.000000 9.000000 1.000000
v -1.000000 9.000000 -1.000000
v 1.000000 9.000000 -1.000000
v -1.000000 7.000000 -1.000000
v 1.000000 7.000000 -1.000000
vt 0.002480 -0.004577
vt 0.998179 -0.004577
vt 0.998179 0.996296
vt 0.002480 0.996296
vt 0.756932 0.756690
vt 0.978657 0.756690
vt 0.978657 0.978415
vt 0.756932 0.978415
vt 0.978731 0.984278
vt 0.757006 0.984278
vt 0.757006 0.762552
vt 0.978731 0.762552
vt 0.973037 0.981202
vt 0.751312 0.981202
vt 0.751312 0.759476
vt 0.973037 0.759476
vt 0.754835 0.759186
vt 0.976561 0.759186
vt 0.976561 0.980912
vt 0.754835 0.980912
vt 0.753855 0.760724
vt 0.975581 0.760724
vt 0.975581 0.982450
vt 0.753855 0.982450
vn 0.000000 0.000000 1.000000
vn 0.000000 0.000000 1.000000
vn 0.000000 0.000000 1.000000
vn 0.000000 0.000000 1.000000
vn 0.000000 1.000000 0.000000
vn 0.000000 1.000000 0.000000
vn 0.000000 1.000000 0.000000
vn 0.000000 1.000000 0.000000
vn 0.000000 0.000000 -1.000000
vn 0.000000 0.000000 -1.000000
vn 0.000000 0.000000 -1.000000
vn 0.000000 0.000000 -1.000000
vn 0.000000 -1.000000 0.000000
vn 0.000000 -1.000000 0.000000
vn 0.000000 -1.000000 0.000000
vn 0.000000 -1.000000 0.000000
vn 1.000000 0.000000 0.000000
vn 1.000000 0.000000 0.000000
vn 1.000000 0.000000 0.000000
vn 1.000000 0.000000 0.000000
vn -1.000000 0.000000 0.000000
vn -1.000000 0.000000 0.000000
vn -1.000000 0.000000 0.000000
vn -1.000000 0.000000 0.000000
s off
g pCube2
usemtl initialShadingGroup
f 1/1/1 2/2/2 4/3/3 3/4/4
f 3/5/5 4/6/6 6/7/7 5/8/8
f 5/9/9 6/10/10 8/11/11 7/12/12
f 7/13/13 8/14/14 2/15/15 1/16/16
f 2/17/17 8/18/18 6/19/19 4/20/20
f 7/21/21 1/22/22 3/23/23 5/24/24
