# This file uses centimeters as units for non-parametric coordinates.

mtllib IceCream.mtl
g default
v -0.858005 0.031971 -0.166083
v -0.858005 0.031971 0.166083
v -0.858005 0.968029 -0.166083
v -0.858005 0.968029 0.166083
v 0.858005 0.968029 -0.166083
v 0.858005 0.968029 0.166083
v 0.858005 0.031971 -0.166083
v 0.858005 0.031971 0.166083
vt 0.831118 0.440810
vt 0.999397 0.004233
vt 0.005968 0.997244
vt 0.001532 0.440641
vt 0.868032 0.005074
vt 0.642410 0.889405
vt 0.635479 0.889823
vt 0.997839 0.444506
vt 0.002810 0.889365
vt 0.006327 0.998490
vt 0.831762 0.001859
vt 0.831762 0.440641
vt 0.000458 0.440810
vt 0.000458 0.888937
vt 0.868244 0.004233
vt 0.831118 0.888937
vt 0.638996 0.998947
vt 0.868032 0.444506
vt 0.001532 0.001859
vt 0.999397 0.442128
vt 0.003172 0.889874
vt 0.868244 0.442128
vt 0.997839 0.005074
vt 0.645205 0.996775
vn -1.000000 0.000000 0.000000
vn -1.000000 0.000000 0.000000
vn -1.000000 0.000000 0.000000
vn -1.000000 0.000000 0.000000
vn 0.000000 1.000000 0.000000
vn 0.000000 1.000000 0.000000
vn 0.000000 1.000000 0.000000
vn 0.000000 1.000000 0.000000
vn 1.000000 0.000000 -0.000000
vn 1.000000 0.000000 -0.000000
vn 1.000000 0.000000 -0.000000
vn 1.000000 0.000000 -0.000000
vn 0.000000 -1.000000 0.000000
vn 0.000000 -1.000000 0.000000
vn 0.000000 -1.000000 0.000000
vn 0.000000 -1.000000 0.000000
vn 0.000000 0.000000 1.000000
vn 0.000000 0.000000 1.000000
vn 0.000000 0.000000 1.000000
vn 0.000000 0.000000 1.000000
vn -0.000000 0.000000 -1.000000
vn -0.000000 0.000000 -1.000000
vn -0.000000 0.000000 -1.000000
vn -0.000000 0.000000 -1.000000
s off
g pCube1
usemtl lambert3SG
f 1/15/1 2/2/2 4/20/3 3/22/4
f 3/3/5 4/21/6 6/6/7 5/24/8
f 5/5/9 6/23/10 8/8/11 7/18/12
f 7/7/13 8/17/14 2/10/15 1/9/16
f 2/19/17 8/11/18 6/12/19 4/4/20
f 7/13/21 1/1/22 3/16/23 5/14/24
