# This file uses centimeters as units for non-parametric coordinates.

mtllib Leg.mtl
g default
v -0.625000 -3.000000 0.625000
v 0.625000 -3.000000 0.625000
v -0.625000 0.000000 0.625000
v 0.625000 0.000000 0.625000
v -0.625000 0.000000 -0.625000
v 0.625000 0.000000 -0.625000
v -0.625000 -3.000000 -0.625000
v 0.625000 -3.000000 -0.625000
vt 0.005987 0.002422
vt 1.000000 0.002422
vt 1.000000 0.997578
vt 0.005987 0.997578
vt 0.008082 0.552848
vt 0.991919 0.552848
vt 0.991919 0.759652
vt 0.008082 0.759652
vt 2.988026 0.997578
vt 1.994013 0.997578
vt 1.994013 0.002422
vt 2.988026 0.002422
vt 0.993857 0.259652
vt 0.006143 0.259652
vt 0.006143 0.052848
vt 0.993857 0.052848
vt -0.988026 0.997578
vt -0.988026 0.002422
vn 0.000000 0.000000 1.000000
vn 0.000000 0.000000 1.000000
vn 0.000000 0.000000 1.000000
vn 0.000000 0.000000 1.000000
vn 0.000000 1.000000 0.000000
vn 0.000000 1.000000 0.000000
vn 0.000000 1.000000 0.000000
vn 0.000000 1.000000 0.000000
vn 0.000000 0.000000 -1.000000
vn 0.000000 0.000000 -1.000000
vn 0.000000 0.000000 -1.000000
vn 0.000000 0.000000 -1.000000
vn 0.000000 -1.000000 0.000000
vn 0.000000 -1.000000 0.000000
vn 0.000000 -1.000000 0.000000
vn 0.000000 -1.000000 0.000000
vn 1.000000 0.000000 0.000000
vn 1.000000 0.000000 0.000000
vn 1.000000 0.000000 0.000000
vn 1.000000 0.000000 0.000000
vn -1.000000 0.000000 0.000000
vn -1.000000 0.000000 0.000000
vn -1.000000 0.000000 0.000000
vn -1.000000 0.000000 0.000000
s off
g pCube10
usemtl lambert4SG
f 1/1/1 2/2/2 4/3/3 3/4/4
f 3/5/5 4/6/6 6/7/7 5/8/8
f 5/9/9 6/10/10 8/11/11 7/12/12
f 7/13/13 8/14/14 2/15/15 1/16/16
f 2/2/17 8/11/18 6/10/19 4/3/20
f 7/18/21 1/1/22 3/4/23 5/17/24
