# This file uses centimeters as units for non-parametric coordinates.

mtllib paperbag.mtl
g default
v -4.000000 0.000000 2.000000
v 4.000000 0.000000 2.000000
v -4.000000 8.468725 2.000000
v 4.000000 8.468725 2.000000
v -4.000000 8.468725 -2.000000
v 4.000000 8.468725 -2.000000
v -4.000000 0.000000 -2.000000
v 4.000000 0.000000 -2.000000
v -4.000000 10.000000 2.000000
v 4.000000 10.000000 2.000000
v 4.000000 10.000000 -2.000000
v -4.000000 10.000000 -2.000000
vt -51.984867 0.198880
vt -16.955372 0.198880
vt -16.955383 0.998338
vt -51.984875 0.998338
vt 0.469154 0.721363
vt 0.469154 0.324445
vt 0.667614 0.324445
vt 0.667614 0.721363
vt 35.588871 0.998339
vt 0.559375 0.998338
vt 0.559385 0.198880
vt 35.588871 0.198880
vt 0.285851 0.663965
vt 0.285851 0.267046
vt 0.484310 0.267046
vt 0.484310 0.663965
vt 53.103626 0.998339
vt 53.103619 0.198880
vn 0.000000 0.000000 1.000000
vn 0.000000 0.000000 1.000000
vn 0.000000 0.000000 1.000000
vn 0.000000 0.000000 1.000000
vn 0.000000 1.000000 0.000000
vn 0.000000 1.000000 0.000000
vn 0.000000 1.000000 0.000000
vn 0.000000 1.000000 0.000000
vn 0.000000 0.000000 -1.000000
vn 0.000000 0.000000 -1.000000
vn 0.000000 0.000000 -1.000000
vn 0.000000 0.000000 -1.000000
vn 0.000000 -1.000000 0.000000
vn 0.000000 -1.000000 0.000000
vn 0.000000 -1.000000 0.000000
vn 0.000000 -1.000000 0.000000
vn 1.000000 0.000000 0.000000
vn 1.000000 0.000000 0.000000
vn 1.000000 0.000000 0.000000
vn 1.000000 0.000000 0.000000
vn -1.000000 0.000000 0.000000
vn -1.000000 0.000000 0.000000
vn -1.000000 0.000000 0.000000
vn -1.000000 0.000000 0.000000
s off
g pCube1
usemtl initialShadingGroup
f 1/1/1 2/2/2 10/3/3 9/4/4
f 3/5/5 4/6/6 6/7/7 5/8/8
f 12/9/9 11/10/10 8/11/11 7/12/12
f 7/13/13 8/14/14 2/15/15 1/16/16
f 2/2/17 8/11/18 11/10/19 10/3/20
f 7/12/21 1/18/22 9/17/23 12/9/24
