# This file uses centimeters as units for non-parametric coordinates.

mtllib Restroom_Top.mtl
g default
v -6.235311 6.749914 4.015143
v -6.245796 6.752051 -3.962827
v 9.992766 6.743011 3.993813
v 9.982281 6.745149 -3.984157
v 9.992953 7.182504 3.993930
v 9.982468 7.184641 -3.984039
v -6.235124 7.189406 4.015261
v -6.245609 7.191544 -3.962709
vt 0.375000 0.000000
vt 0.625000 0.000000
vt 0.375000 0.250000
vt 0.625000 0.250000
vt 0.375000 0.500000
vt 0.625000 0.500000
vt 0.375000 0.750000
vt 0.625000 0.750000
vt 0.375000 1.000000
vt 0.625000 1.000000
vt 0.875000 0.000000
vt 0.875000 0.250000
vt 0.125000 0.000000
vt 0.125000 0.250000
vn -0.000426 -1.000000 -0.000267
vn -0.000426 -1.000000 -0.000267
vn -0.000426 -1.000000 -0.000267
vn -0.000426 -1.000000 -0.000267
vn 0.999999 -0.000425 -0.001314
vn 0.999999 -0.000425 -0.001314
vn 0.999999 -0.000425 -0.001314
vn 0.999999 -0.000425 -0.001314
vn 0.000426 1.000000 0.000267
vn 0.000426 1.000000 0.000267
vn 0.000426 1.000000 0.000267
vn 0.000426 1.000000 0.000267
vn -0.999999 0.000425 0.001314
vn -0.999999 0.000425 0.001314
vn -0.999999 0.000425 0.001314
vn -0.999999 0.000425 0.001314
vn -0.001314 0.000268 -0.999999
vn -0.001314 0.000268 -0.999999
vn -0.001314 0.000268 -0.999999
vn -0.001314 0.000268 -0.999999
vn 0.001314 -0.000268 0.999999
vn 0.001314 -0.000268 0.999999
vn 0.001314 -0.000268 0.999999
vn 0.001314 -0.000268 0.999999
s off
g pCube4
usemtl lambert2SG
f 1/1/1 2/2/2 4/4/3 3/3/4
f 3/3/5 4/4/6 6/6/7 5/5/8
f 5/5/9 6/6/10 8/8/11 7/7/12
f 7/7/13 8/8/14 2/10/15 1/9/16
f 2/2/17 8/11/18 6/12/19 4/4/20
f 7/13/21 1/1/22 3/3/23 5/14/24
