# This file uses centimeters as units for non-parametric coordinates.

mtllib Packet.mtl
g default
v -5.427929 12.715463 1.070363
v -5.420657 13.276047 1.660267
v -5.426928 13.276047 1.076117
v -5.433198 13.276047 0.491966
v -5.420657 13.916047 1.660267
v -5.426928 13.916047 1.076117
v -5.433198 13.916047 0.491966
v -5.420657 14.556047 1.660267
v -5.426928 14.556047 1.076117
v -5.433198 14.556047 0.491966
v -5.420657 15.196047 1.660267
v -5.426928 15.196047 1.076117
v -5.433198 15.196047 0.491966
v -5.427970 15.756631 1.050286
v -7.427855 15.756631 1.071753
v -7.420542 15.196047 1.681734
v -7.426812 15.196047 1.097584
v -7.433083 15.196047 0.513434
v -7.420542 14.556047 1.681734
v -7.426812 14.556047 1.097584
v -7.433083 14.556047 0.513434
v -7.420542 13.916047 1.681734
v -7.426812 13.916047 1.097584
v -7.433083 13.916047 0.513434
v -7.420542 13.276047 1.681734
v -7.426812 13.276047 1.097584
v -7.433083 13.276047 0.513434
v -7.427814 12.715463 1.091830
vt 0.439558 0.355861
vt 0.440332 0.477956
vt 0.495034 0.477956
vt 0.549736 0.477956
vt 0.440333 0.600052
vt 0.495034 0.600052
vt 0.549736 0.600052
vt 0.440333 0.722147
vt 0.495034 0.722147
vt 0.549736 0.722147
vt 0.440333 0.844243
vt 0.495034 0.844243
vt 0.549736 0.844243
vt 0.549129 0.966339
vt 0.962955 0.966338
vt 1.017717 0.844242
vt 0.963016 0.844243
vt 0.908314 0.844244
vt 1.017717 0.722146
vt 0.963015 0.722147
vt 0.908314 0.722148
vt 1.017716 0.600051
vt 0.963015 0.600052
vt 0.908313 0.600052
vt 1.017716 0.477955
vt 0.963014 0.477956
vt 0.908313 0.477957
vt 0.962952 0.355860
vt 0.908314 0.355861
vt 0.549130 0.355861
vt 0.495335 0.966339
vt 0.439558 0.966339
vt 0.495335 0.966339
vt 0.908313 0.966339
vt 0.081755 0.355862
vt 0.081755 0.477958
vt 0.081755 0.600053
vt 0.081755 0.722149
vt 0.081755 0.844244
vt 0.081755 0.966340
vt 0.495157 0.355861
vn 0.999941 -0.001677 -0.010734
vn 0.999942 -0.000783 -0.010734
vn 0.999942 -0.000499 -0.010734
vn 0.999942 -0.000504 -0.010734
vn 0.999942 0.000000 -0.010734
vn 0.999942 0.000000 -0.010734
vn 0.999942 0.000000 -0.010734
vn 0.999942 0.000000 -0.010734
vn 0.999942 0.000000 -0.010734
vn 0.999942 0.000000 -0.010734
vn 0.999942 0.000400 -0.010734
vn 0.999942 0.000637 -0.010734
vn 0.999942 0.000416 -0.010734
vn 0.999942 0.001365 -0.010734
vn -0.999941 -0.001365 0.010734
vn -0.999942 -0.000637 0.010734
vn -0.999942 -0.000400 0.010734
vn -0.999942 -0.000416 0.010734
vn -0.999942 0.000000 0.010734
vn -0.999942 0.000000 0.010734
vn -0.999942 0.000000 0.010734
vn -0.999942 0.000000 0.010734
vn -0.999942 0.000000 0.010734
vn -0.999942 0.000000 0.010734
vn -0.999942 0.000499 0.010734
vn -0.999942 0.000783 0.010734
vn -0.999942 0.000504 0.010734
vn -0.999941 0.001677 0.010734
vn -0.007470 -0.718091 -0.695909
vn -0.009669 -0.434175 -0.900777
vn -0.007470 -0.718091 -0.695909
vn -0.009671 -0.433896 -0.900911
vn -0.010734 0.000000 -0.999942
vn -0.010734 0.000000 -0.999942
vn -0.010734 0.000000 -0.999942
vn -0.010734 0.000000 -0.999942
vn -0.009733 0.421575 -0.906741
vn -0.009732 0.421802 -0.906636
vn -0.007605 0.705689 -0.708481
vn -0.007605 0.705689 -0.708481
vn 0.007394 -0.724918 0.688796
vn 0.007394 -0.724918 0.688796
vn 0.009633 -0.441156 0.897379
vn 0.009634 -0.440878 0.897515
vn 0.010734 0.000000 0.999942
vn 0.010734 0.000000 0.999942
vn 0.010734 0.000000 0.999942
vn 0.010734 0.000000 0.999942
vn 0.009569 0.453099 0.891409
vn 0.009570 0.452873 0.891524
vn 0.007263 0.736315 0.676600
vn 0.007263 0.736315 0.676600
s 1
g pCube3
usemtl lambert6SG
f 1/41/1 3/3/2 2/2/3
f 1/41/1 4/4/4 3/3/2
f 2/2/3 3/3/2 5/5/5
f 5/5/5 3/3/2 6/6/6
f 3/3/2 4/4/4 6/6/6
f 6/6/6 4/4/4 7/7/7
f 5/5/5 6/6/6 8/8/8
f 8/8/8 6/6/6 9/9/9
f 6/6/6 7/7/7 9/9/9
f 9/9/9 7/7/7 10/10/10
f 8/8/8 9/9/9 11/11/11
f 11/11/11 9/9/9 12/12/12
f 9/9/9 10/10/10 12/12/12
f 12/12/12 10/10/10 13/13/13
f 11/11/11 12/12/12 14/31/14
f 12/12/12 13/13/13 14/33/14
s 2
f 15/15/15 17/17/16 16/16/17
f 15/15/15 18/18/18 17/17/16
f 16/16/17 17/17/16 19/19/19
f 19/19/19 17/17/16 20/20/20
f 17/17/16 18/18/18 20/20/20
f 20/20/20 18/18/18 21/21/21
f 19/19/19 20/20/20 22/22/22
f 22/22/22 20/20/20 23/23/23
f 20/20/20 21/21/21 23/23/23
f 23/23/23 21/21/21 24/24/24
f 22/22/22 23/23/23 25/25/25
f 25/25/25 23/23/23 26/26/26
f 23/23/23 24/24/24 26/26/26
f 26/26/26 24/24/24 27/27/27
f 25/25/25 26/26/26 28/28/28
f 26/26/26 27/27/27 28/28/28
s 3
f 28/29/29 27/27/30 1/30/31
f 1/30/31 27/27/30 4/4/32
f 4/4/32 27/27/30 7/7/33
f 7/7/33 27/27/30 24/24/34
f 7/7/33 24/24/34 10/10/35
f 10/10/35 24/24/34 21/21/36
f 10/10/35 21/21/36 13/13/37
f 13/13/37 21/21/36 18/18/38
f 13/13/37 18/18/38 14/14/39
f 14/14/39 18/18/38 15/34/40
s 4
f 28/35/41 1/1/42 25/36/43
f 25/36/43 1/1/42 2/2/44
f 25/36/43 2/2/44 22/37/45
f 22/37/45 2/2/44 5/5/46
f 22/37/45 5/5/46 19/38/47
f 19/38/47 5/5/46 8/8/48
f 19/38/47 8/8/48 16/39/49
f 16/39/49 8/8/48 11/11/50
f 11/11/50 14/32/51 16/39/49
f 16/39/49 14/32/51 15/40/52
