# This file uses centimeters as units for non-parametric coordinates.

mtllib T_Handle.mtl
g default
v -10.207032 -0.225331 0.742527
v -10.294705 -0.407089 0.742527
v -10.306150 -0.608562 0.742527
v -10.239621 -0.799077 0.742527
v -10.056477 -0.090962 0.742527
v -10.239621 -0.799077 -0.742527
v -10.306150 -0.608562 -0.742527
v -10.294705 -0.407089 -0.742527
v -10.207032 -0.225331 -0.742527
v -10.056477 -0.090962 -0.742527
v -7.954635 -4.633388 0.742527
v -7.849216 -4.684238 0.742527
v -7.732362 -4.690877 0.742527
v -7.621863 -4.652291 0.742527
v -8.032568 -4.546065 0.742527
v -8.032568 -4.546065 -0.742527
v -7.621863 -4.652291 -0.742527
v -7.732362 -4.690877 -0.742527
v -7.849216 -4.684238 -0.742527
v -7.954635 -4.633388 -0.742527
v 7.621862 10.321939 0.742527
v 8.032568 10.215715 0.742527
v 7.954633 10.303037 0.742527
v 7.849215 10.353888 0.742527
v 7.732361 10.360525 0.742527
v 7.621862 10.321939 -0.742527
v 7.732361 10.360525 -0.742527
v 7.849215 10.353888 -0.742527
v 7.954633 10.303037 -0.742527
v 8.032568 10.215715 -0.742527
v 10.243641 5.870855 0.742527
v 10.330963 5.948790 0.742527
v 10.381813 6.054209 0.742527
v 10.388451 6.171063 0.742527
v 10.349864 6.281562 0.742527
v 10.243641 5.870855 -0.742527
v 10.349864 6.281562 -0.742527
v 10.388451 6.171063 -0.742527
v 10.381813 6.054209 -0.742527
v 10.330963 5.948790 -0.742527
vt 0.380402 0.250902
vt 0.375000 0.250000
vt 0.370354 0.247099
vt 0.383203 0.251272
vt 0.055732 0.083255
vt 0.125000 0.241530
vt 0.375000 0.508470
vt 0.375000 0.500000
vt 0.125000 0.250000
vt 0.349463 0.497941
vt 0.384231 0.486185
vt 0.125000 0.231656
vt 0.375369 0.337776
vt 0.375000 0.331591
vt 0.375000 0.919475
vt 0.377026 0.325735
vt 0.378326 0.806741
vt 0.503113 0.677154
vt 0.375968 0.536809
vt 0.184749 0.538071
vt 0.397711 0.557451
vt 0.394703 0.669476
vt 0.125000 0.523410
vt 0.375000 0.669476
vt 0.125202 0.514472
vt 0.375000 0.744994
vt 0.381139 0.321101
vt 0.308729 0.913590
vt 0.376916 0.740370
vt 0.620209 0.250610
vt 0.624195 0.237065
vt 0.625357 0.240783
vt 0.625007 0.244663
vt 0.623200 0.248114
vt 0.620379 0.498877
vt 0.621957 0.499238
vt 0.875000 0.250000
vt 0.625000 0.500000
vt 0.874823 0.259076
vt 0.625000 0.504936
vt 0.625000 0.510691
vt 0.816476 0.883148
vt 0.619976 0.718164
vt 0.725718 0.062273
vt 0.621695 0.331591
vt 0.621695 0.718164
vt 0.625000 0.331591
vt 0.641338 0.718184
vt 0.628054 0.332856
vt 0.630391 0.335193
vt 0.620363 0.751120
vt 0.875000 0.445524
vt 0.490095 0.174001
vt 0.875000 0.439769
vt 0.625747 0.742729
vt 0.641590 0.468943
vt 0.875000 0.434833
vt 0.639979 0.469314
vt 0.483951 0.180085
vt 0.983989 0.641933
vt 0.620363 0.469284
vt 0.621947 0.468924
vt 0.623237 0.749121
vt 0.639591 0.718194
vt 0.984041 0.676379
vt 0.618641 0.332855
vt 0.625128 0.746175
vt 0.625353 0.428067
vt 0.875000 0.439769
vt 0.624793 0.434714
vt 0.625401 0.447743
vt 0.820066 0.482084
vt 0.625000 0.739309
vt 0.725941 0.071782
vt 0.689620 0.480917
vt 0.624946 0.454430
vt 0.490545 0.080950
vt 0.875000 0.239309
vt 0.875000 0.245064
vt 0.625434 0.237186
vt 0.624018 0.256832
vt 0.686031 0.881981
vt 0.726075 0.114908
vt 0.624195 0.237065
vt 0.622986 0.499917
vt 0.634667 0.461393
vt 0.625393 0.256858
vt 0.621957 0.499238
vt 0.619245 0.496042
vt 0.626540 0.479213
vt 0.631624 0.460631
vt 0.536368 0.607810
vt 0.484462 0.074806
vt 0.614232 0.493961
vt 0.723238 0.117744
vt 0.536344 0.573456
vt 0.624962 0.478853
vt 0.055296 0.171889
vt 0.125000 0.534251
vt 0.125000 0.528416
vt 0.374606 0.536332
vt 0.376169 0.517029
vt 0.312543 0.539373
vt 0.523105 0.071429
vt 0.378077 0.343349
vt 0.375000 0.750000
vt 0.374653 0.516655
vt 0.378065 0.557472
vt 0.376916 0.754624
vt 0.394703 0.919475
vt 0.503057 0.642709
vt 0.061380 0.178032
vt 0.380455 0.758165
vt 0.525917 0.068476
vt 0.397972 0.806720
vt 0.197667 0.231656
vt 0.367172 0.242641
vt 0.523918 0.112649
vt 0.066326 0.072762
vt 0.061733 0.608135
vt 0.382986 0.497970
vt 0.380259 0.498599
vt 0.378241 0.492175
vt 0.369948 0.459897
vt 0.349680 0.251242
vt 0.061710 0.573780
vt 0.528845 0.117597
vt 0.385739 0.249668
vt 0.375000 0.500000
vt 0.187333 0.250000
vt 0.364689 0.461294
vt 0.125000 0.241530
vt 0.197667 0.241530
vt 0.187332 0.241530
vt 0.180936 0.912288
vt 0.378241 0.516295
vn -0.509159 0.860672 0.000000
vn -0.509159 0.860672 0.000000
vn -0.506569 0.862200 0.000000
vn -0.506569 0.862200 0.000000
vn 0.506579 -0.862194 0.000000
vn 0.506579 -0.862194 0.000000
vn 0.508466 -0.861082 0.000000
vn 0.508466 -0.861082 0.000000
vn 0.864104 0.503313 0.000000
vn 0.864104 0.503313 0.000000
vn 0.859152 0.511720 0.000000
vn 0.859152 0.511720 0.000000
vn -0.859031 -0.511923 0.000000
vn -0.859031 -0.511923 0.000000
vn -0.866000 -0.500043 0.000000
vn -0.866000 -0.500043 0.000000
vn 0.000000 0.000000 -1.000000
vn 0.000000 0.000000 -1.000000
vn 0.000000 0.000000 -1.000000
vn 0.000000 0.000000 -1.000000
vn 0.000000 0.000000 -1.000000
vn 0.000000 0.000000 -1.000000
vn 0.000000 0.000000 -1.000000
vn 0.000000 0.000000 -1.000000
vn -0.990270 -0.139158 0.000000
vn -0.990270 -0.139158 0.000000
vn -0.968143 0.250398 0.000000
vn -0.968143 0.250398 0.000000
vn -0.798623 0.601832 0.000000
vn -0.798623 0.601832 0.000000
vn 0.000000 0.000000 1.000000
vn 0.000000 0.000000 1.000000
vn 0.000000 0.000000 1.000000
vn 0.000000 0.000000 1.000000
vn 0.000000 0.000000 1.000000
vn 0.000000 0.000000 -1.000000
vn 0.000000 0.000000 -1.000000
vn 0.000000 0.000000 -1.000000
vn 0.000000 0.000000 1.000000
vn 0.000000 0.000000 1.000000
vn 0.000000 0.000000 1.000000
vn 0.000000 0.000000 1.000000
vn 0.000000 0.000000 1.000000
vn 0.000000 0.000000 1.000000
vn 0.139153 -0.990271 0.000000
vn 0.139153 -0.990271 0.000000
vn -0.250399 -0.968143 0.000000
vn -0.250399 -0.968143 0.000000
vn -0.601835 -0.798621 0.000000
vn -0.601835 -0.798621 0.000000
vn 0.000000 0.000000 1.000000
vn 0.000000 0.000000 1.000000
vn 0.000000 0.000000 1.000000
vn 0.000000 0.000000 -1.000000
vn 0.000000 0.000000 -1.000000
vn 0.000000 0.000000 -1.000000
vn -0.139158 0.990270 0.000000
vn -0.139158 0.990270 0.000000
vn 0.250397 0.968143 0.000000
vn 0.250397 0.968143 0.000000
vn 0.601833 0.798622 0.000000
vn 0.601833 0.798622 0.000000
vn 0.990270 0.139159 0.000000
vn 0.990270 0.139159 0.000000
vn 0.968143 -0.250396 0.000000
vn 0.968143 -0.250396 0.000000
vn 0.798625 -0.601829 0.000000
vn 0.798625 -0.601829 0.000000
vn 0.000000 0.000000 1.000000
vn 0.000000 0.000000 1.000000
vn 0.000000 0.000000 1.000000
vn 0.000000 0.000000 -1.000000
vn 0.000000 0.000000 -1.000000
vn 0.000000 0.000000 -1.000000
vn 0.000000 0.000000 1.000000
vn 0.000000 0.000000 1.000000
vn 0.000000 0.000000 1.000000
vn 0.000000 0.000000 -1.000000
vn 0.000000 0.000000 -1.000000
vn 0.000000 0.000000 -1.000000
s 1
g pCube1
usemtl lambert2SG
f 10/120/1 5/126/2 21/96/3 26/92/4
f 14/18/5 17/111/6 36/60/7 31/65/8
f 35/75/9 37/72/10 30/42/11 22/82/12
f 16/20/13 15/103/14 4/28/15 6/135/16
s 5
f 6/5/17 10/119/18 26/93/19 30/77/20 37/53/21 36/59/22 17/112/23 16/98/24
s 1
f 4/116/15 3/133/25 7/132/26 6/12/16
f 3/134/25 2/130/27 8/9/28 7/6/26
f 2/131/27 1/124/29 9/122/30 8/8/28
f 1/125/29 5/4/2 10/121/1 9/10/30
s 6
f 1/1/31 2/2/32 3/3/33 4/117/34 5/128/35
s 5
f 6/136/17 7/7/36 8/129/37 9/123/38 10/11/18
s 6
f 15/104/39 14/114/40 31/44/41 35/74/42 22/83/43 21/95/44 5/127/35 4/118/34
s 1
f 14/115/5 13/17/45 18/108/46 17/21/6
f 13/110/45 12/15/47 19/24/48 18/22/46
f 12/107/47 11/101/49 20/100/50 19/23/48
f 11/102/49 15/19/14 16/99/13 20/25/50
s 6
f 11/13/51 12/14/52 13/16/53 14/27/40 15/105/39
s 5
f 16/29/24 17/113/23 18/109/54 19/106/55 20/26/56
s 1
f 21/97/3 25/90/57 27/88/58 26/35/4
f 25/91/57 24/86/59 28/38/60 27/36/58
f 24/87/59 23/80/61 29/79/62 28/37/60
f 23/81/61 22/31/12 30/78/11 29/39/62
f 35/76/9 34/70/63 38/69/64 37/52/10
f 34/71/63 33/68/65 39/57/66 38/54/64
f 33/48/65 32/46/67 40/62/68 39/56/66
f 32/64/67 31/43/8 36/61/7 40/58/68
s 6
f 21/30/44 22/84/43 23/32/69 24/33/70 25/34/71
s 5
f 26/94/19 27/89/72 28/85/73 29/40/74 30/41/20
s 6
f 31/66/41 32/45/75 33/47/76 34/49/77 35/50/42
s 5
f 36/51/22 37/73/21 38/55/78 39/67/79 40/63/80
