# This file uses centimeters as units for non-parametric coordinates.

mtllib T_Handle.mtl
g default
v -3.930837 2.277970 0.375000
v 3.161260 -3.262983 0.375000
v -3.161260 3.262983 0.375000
v 3.930837 -2.277970 0.375000
v -3.161260 3.262983 -0.375000
v 3.930837 -2.277970 -0.375000
v -3.930837 2.277970 -0.375000
v 3.161260 -3.262983 -0.375000
v -5.110493 2.450421 0.375000
v -5.188327 2.458154 0.375000
v -5.259962 2.489560 0.375000
v -5.318387 2.541565 0.375000
v -5.357881 2.609079 0.375000
v -5.374579 2.685493 0.375000
v -5.366847 2.763327 0.375000
v -5.335441 2.834962 0.375000
v -5.283435 2.893387 0.375000
v -5.215921 2.932881 0.375000
v -5.139507 2.949579 0.375000
v -5.110493 2.450421 -0.375000
v -5.188327 2.458154 -0.375000
v -5.259962 2.489560 -0.375000
v -5.318387 2.541565 -0.375000
v -5.357881 2.609079 -0.375000
v -5.374579 2.685493 -0.375000
v -5.366847 2.763327 -0.375000
v -5.335441 2.834962 -0.375000
v -5.283435 2.893387 -0.375000
v -5.215921 2.932881 -0.375000
v -5.139507 2.949579 -0.375000
v -5.095986 2.200843 -0.375000
v -5.251654 2.216307 -0.375000
v -5.394925 2.279119 -0.375000
v -5.511773 2.383130 -0.375000
v -5.590761 2.518158 -0.375000
v -5.624157 2.670986 -0.375000
v -5.608693 2.826654 -0.375000
v -5.545881 2.969925 -0.375000
v -5.441870 3.086773 -0.375000
v -5.306842 3.165761 -0.375000
v -5.154014 3.199158 -0.375000
v -5.095986 2.200843 0.375000
v -5.251654 2.216307 0.375000
v -5.394925 2.279119 0.375000
v -5.511773 2.383130 0.375000
v -5.590761 2.518158 0.375000
v -5.624157 2.670986 0.375000
v -5.608693 2.826654 0.375000
v -5.545881 2.969925 0.375000
v -5.441870 3.086773 0.375000
v -5.306842 3.165761 0.375000
v -5.154014 3.199158 0.375000
v 3.154553 -3.258105 0.375000
v 5.153752 -3.201494 0.375000
v 3.126248 -2.258506 0.375000
v 5.125446 -2.201895 0.375000
v 3.126248 -2.258506 -0.375000
v 5.125446 -2.201895 -0.375000
v 3.154553 -3.258105 -0.375000
v 5.153752 -3.201494 -0.375000
v -5.151915 2.196895 0.375000
v -3.152716 2.253506 0.375000
v -5.180220 3.196494 0.375000
v -3.181021 3.253105 0.375000
v -5.180220 3.196494 -0.375000
v -3.181021 3.253105 -0.375000
v -5.151915 2.196895 -0.375000
v -3.152716 2.253506 -0.375000
v 5.100000 -2.450000 0.375000
v 5.177254 -2.462236 0.375000
v 5.246946 -2.497746 0.375000
v 5.302254 -2.553054 0.375000
v 5.337764 -2.622746 0.375000
v 5.350000 -2.700000 0.375000
v 5.337764 -2.777254 0.375000
v 5.302254 -2.846946 0.375000
v 5.246946 -2.902254 0.375000
v 5.177254 -2.937764 0.375000
v 5.100000 -2.950000 0.375000
v 5.100000 -2.450000 -0.375000
v 5.177254 -2.462236 -0.375000
v 5.246946 -2.497746 -0.375000
v 5.302254 -2.553054 -0.375000
v 5.337764 -2.622746 -0.375000
v 5.350000 -2.700000 -0.375000
v 5.337764 -2.777254 -0.375000
v 5.302254 -2.846946 -0.375000
v 5.246946 -2.902254 -0.375000
v 5.177254 -2.937764 -0.375000
v 5.100000 -2.950000 -0.375000
v 5.100000 -2.200000 -0.375000
v 5.254508 -2.224472 -0.375000
v 5.393893 -2.295491 -0.375000
v 5.504508 -2.406107 -0.375000
v 5.575528 -2.545491 -0.375000
v 5.600000 -2.700000 -0.375000
v 5.575528 -2.854509 -0.375000
v 5.504508 -2.993893 -0.375000
v 5.393893 -3.104509 -0.375000
v 5.254508 -3.175529 -0.375000
v 5.100000 -3.200000 -0.375000
v 5.100000 -2.200000 0.375000
v 5.254508 -2.224472 0.375000
v 5.393893 -2.295491 0.375000
v 5.504508 -2.406107 0.375000
v 5.575528 -2.545491 0.375000
v 5.600000 -2.700000 0.375000
v 5.575528 -2.854509 0.375000
v 5.504508 -2.993893 0.375000
v 5.393893 -3.104509 0.375000
v 5.254508 -3.175529 0.375000
v 5.100000 -3.200000 0.375000
vt 0.479572 0.275233
vt 0.057001 0.275508
vt 0.056962 0.216818
vt 0.479534 0.216542
vt 0.831305 0.273917
vt 0.408743 0.276822
vt 0.408340 0.218133
vt 0.830902 0.215228
vt 0.344103 0.866755
vt 0.349015 0.866755
vt 0.349015 0.914091
vt 0.344103 0.914091
vt 0.339581 0.866755
vt 0.339581 0.914091
vt 0.335894 0.866755
vt 0.335894 0.914091
vt 0.333401 0.866755
vt 0.333401 0.914091
vt 0.359615 0.914172
vt 0.354792 0.914172
vt 0.354792 0.866836
vt 0.359615 0.866836
vt 0.364528 0.914172
vt 0.364528 0.866836
vt 0.369049 0.914172
vt 0.369049 0.866836
vt 0.372736 0.914172
vt 0.372736 0.866836
vt 0.375229 0.914172
vt 0.375229 0.866836
vt 0.386354 0.914172
vt 0.381531 0.914172
vt 0.381531 0.866836
vt 0.386354 0.866836
vt 0.321513 0.846865
vt 0.326426 0.847353
vt 0.327341 0.863104
vt 0.317516 0.862128
vt 0.316992 0.844882
vt 0.308474 0.858164
vt 0.313305 0.841600
vt 0.301099 0.851600
vt 0.310812 0.837339
vt 0.296114 0.843077
vt 0.309758 0.832516
vt 0.294006 0.833432
vt 0.310246 0.827604
vt 0.294982 0.823607
vt 0.312228 0.823083
vt 0.298946 0.814564
vt 0.315510 0.819395
vt 0.305511 0.807190
vt 0.319772 0.816903
vt 0.314033 0.802204
vt 0.324594 0.815849
vt 0.323679 0.800097
vt 0.413629 0.866836
vt 0.423454 0.866836
vt 0.423454 0.914172
vt 0.413629 0.914172
vt 0.404587 0.866836
vt 0.404587 0.914172
vt 0.397212 0.866836
vt 0.397212 0.914172
vt 0.392227 0.866836
vt 0.392227 0.914172
vt 0.439307 0.914172
vt 0.429661 0.914172
vt 0.429661 0.866836
vt 0.439307 0.866836
vt 0.449132 0.914172
vt 0.449132 0.866836
vt 0.458174 0.914172
vt 0.458174 0.866836
vt 0.465549 0.914172
vt 0.465549 0.866836
vt 0.470534 0.914172
vt 0.470534 0.866836
vt 0.487437 0.914172
vt 0.477791 0.914172
vt 0.477791 0.866836
vt 0.487437 0.866836
vt 0.355223 0.801073
vt 0.365048 0.800097
vt 0.364132 0.815849
vt 0.359220 0.816337
vt 0.346181 0.805037
vt 0.354699 0.818319
vt 0.338806 0.811602
vt 0.351011 0.821601
vt 0.333821 0.820124
vt 0.348519 0.825862
vt 0.331713 0.829769
vt 0.347465 0.830685
vt 0.332689 0.839594
vt 0.347953 0.835597
vt 0.336653 0.848637
vt 0.349935 0.840119
vt 0.343218 0.856011
vt 0.353217 0.843806
vt 0.351740 0.860997
vt 0.357478 0.846299
vt 0.361386 0.863104
vt 0.362301 0.847353
vt 0.648664 0.128855
vt 0.652237 0.002678
vt 0.715325 0.004464
vt 0.711753 0.130642
vt 0.016724 0.686323
vt 0.016724 0.560145
vt 0.064060 0.560145
vt 0.064060 0.686323
vt 0.796784 0.130642
vt 0.793211 0.004464
vt 0.856300 0.002678
vt 0.859872 0.128855
vt 0.564899 0.654959
vt 0.564899 0.565685
vt 0.598390 0.565685
vt 0.598390 0.654959
vt 0.184370 0.416605
vt 0.231706 0.416605
vt 0.231706 0.479694
vt 0.184370 0.479694
vt 0.131423 0.416605
vt 0.178758 0.416605
vt 0.178758 0.479694
vt 0.131423 0.479694
vt 0.576390 0.128855
vt 0.579963 0.002678
vt 0.643052 0.004464
vt 0.639479 0.130642
vt 0.122618 0.686323
vt 0.122618 0.560145
vt 0.169954 0.560145
vt 0.169954 0.686323
vt 0.724510 0.130642
vt 0.720937 0.004464
vt 0.784026 0.002678
vt 0.787599 0.128855
vt 0.489976 0.654959
vt 0.489976 0.565685
vt 0.523467 0.565685
vt 0.523467 0.654959
vt 0.237317 0.416605
vt 0.284653 0.416605
vt 0.284653 0.479694
vt 0.237317 0.479694
vt 0.078476 0.416605
vt 0.125811 0.416605
vt 0.125811 0.479694
vt 0.078476 0.479694
vt 0.498711 0.914172
vt 0.493835 0.914172
vt 0.493835 0.866836
vt 0.498711 0.866836
vt 0.503109 0.914172
vt 0.503109 0.866836
vt 0.506600 0.914172
vt 0.506600 0.866836
vt 0.531084 0.866836
vt 0.535483 0.866836
vt 0.535483 0.914172
vt 0.531084 0.914172
vt 0.526208 0.866836
vt 0.526208 0.914172
vt 0.521333 0.866836
vt 0.521333 0.914172
vt 0.516934 0.866836
vt 0.516934 0.914172
vt 0.513443 0.866836
vt 0.513443 0.914172
vt 0.546841 0.866836
vt 0.551239 0.866836
vt 0.551239 0.914172
vt 0.546841 0.914172
vt 0.541965 0.866836
vt 0.541965 0.914172
vt 0.624493 0.816647
vt 0.619617 0.815875
vt 0.619617 0.800097
vt 0.629369 0.801641
vt 0.628891 0.818889
vt 0.638166 0.806123
vt 0.632382 0.822379
vt 0.645147 0.813105
vt 0.634623 0.826778
vt 0.649630 0.821902
vt 0.635396 0.831654
vt 0.651174 0.831654
vt 0.634623 0.836529
vt 0.649630 0.841405
vt 0.632382 0.840928
vt 0.645147 0.850202
vt 0.628891 0.844419
vt 0.638166 0.857184
vt 0.624493 0.846660
vt 0.629369 0.861666
vt 0.619617 0.847432
vt 0.619617 0.863211
vt 0.567760 0.914197
vt 0.558008 0.914197
vt 0.558008 0.866862
vt 0.567760 0.866862
vt 0.576557 0.914197
vt 0.576557 0.866862
vt 0.583538 0.914197
vt 0.583538 0.866862
vt 0.625377 0.866862
vt 0.634174 0.866862
vt 0.634174 0.914197
vt 0.625377 0.914197
vt 0.615625 0.866862
vt 0.615625 0.914197
vt 0.605873 0.866862
vt 0.605873 0.914197
vt 0.597076 0.866862
vt 0.597076 0.914197
vt 0.590095 0.866862
vt 0.590095 0.914197
vt 0.357575 0.132506
vt 0.366372 0.132506
vt 0.366372 0.179842
vt 0.357575 0.179842
vt 0.347823 0.132506
vt 0.347823 0.179842
vt 0.592200 0.861666
vt 0.582448 0.863211
vt 0.582448 0.847432
vt 0.587324 0.846660
vt 0.600997 0.857184
vt 0.591723 0.844419
vt 0.607979 0.850203
vt 0.595213 0.840928
vt 0.612461 0.841406
vt 0.597455 0.836530
vt 0.614005 0.831654
vt 0.598227 0.831654
vt 0.612461 0.821902
vt 0.597455 0.826778
vt 0.607979 0.813105
vt 0.595213 0.822379
vt 0.600997 0.806124
vt 0.591723 0.818889
vt 0.592200 0.801641
vt 0.587324 0.816648
vt 0.582448 0.800097
vt 0.582448 0.815875
vt 0.073032 1.003013
vt 0.073032 0.559460
vt 0.120367 0.559460
vt 0.120367 1.003013
vt 0.120367 0.526105
vt 0.073032 0.526105
vt 0.806902 0.916747
vt 0.806902 0.600050
vt 0.840393 0.600050
vt 0.840393 0.916747
vt 0.865484 0.002678
vt 0.912820 0.002678
vn 0.000000 0.000000 1.000000
vn 0.000000 0.000000 1.000000
vn 0.000000 0.000000 1.000000
vn 0.000000 0.000000 1.000000
vn 0.615662 0.788011 0.000000
vn 0.615662 0.788011 0.000000
vn 0.615662 0.788011 0.000000
vn 0.615662 0.788011 0.000000
vn 0.000000 0.000000 -1.000000
vn 0.000000 0.000000 -1.000000
vn 0.000000 0.000000 -1.000000
vn 0.000000 0.000000 -1.000000
vn -0.615662 -0.788011 0.000000
vn -0.615662 -0.788011 0.000000
vn -0.615662 -0.788011 0.000000
vn -0.615662 -0.788011 0.000000
vn 0.788011 -0.615662 0.000000
vn 0.788011 -0.615662 0.000000
vn 0.788011 -0.615662 0.000000
vn 0.788011 -0.615662 0.000000
vn -0.788011 0.615662 0.000000
vn -0.788011 0.615662 0.000000
vn -0.788011 0.615662 0.000000
vn -0.788011 0.615662 0.000000
vn 0.253309 0.967385 0.000000
vn 0.098859 0.995101 0.000000
vn 0.098859 0.995101 0.000000
vn 0.253309 0.967385 0.000000
vn 0.539847 0.841763 0.000000
vn 0.539847 0.841763 0.000000
vn 0.773544 0.633743 0.000000
vn 0.773544 0.633743 0.000000
vn 0.931522 0.363685 0.000000
vn 0.931522 0.363685 0.000000
vn 0.998315 0.058028 0.000000
vn 0.998315 0.058028 0.000000
vn 0.967385 -0.253311 0.000000
vn 0.967385 -0.253311 0.000000
vn 0.841761 -0.539850 0.000000
vn 0.841761 -0.539850 0.000000
vn 0.633740 -0.773546 0.000000
vn 0.633740 -0.773546 0.000000
vn 0.363684 -0.931523 0.000000
vn 0.363684 -0.931523 0.000000
vn 0.213487 -0.976946 0.000000
vn 0.213487 -0.976946 0.000000
vn 0.000000 0.000000 -1.000000
vn 0.000000 0.000000 -1.000000
vn 0.000000 0.000000 -1.000000
vn 0.000000 0.000000 -1.000000
vn 0.000000 0.000000 -1.000000
vn 0.000000 0.000000 -1.000000
vn 0.000000 0.000000 -1.000000
vn 0.000000 0.000000 -1.000000
vn 0.000000 0.000000 -1.000000
vn 0.000000 0.000000 -1.000000
vn 0.000000 0.000000 -1.000000
vn 0.000000 0.000000 -1.000000
vn 0.000000 0.000000 -1.000000
vn 0.000000 0.000000 -1.000000
vn 0.000000 0.000000 -1.000000
vn 0.000000 0.000000 -1.000000
vn 0.000000 0.000000 -1.000000
vn 0.000000 0.000000 -1.000000
vn 0.000000 0.000000 -1.000000
vn 0.000000 0.000000 -1.000000
vn 0.000000 0.000000 -1.000000
vn 0.000000 0.000000 -1.000000
vn -0.253308 -0.967386 0.000000
vn -0.098856 -0.995102 0.000000
vn -0.098856 -0.995102 0.000000
vn -0.253308 -0.967386 0.000000
vn -0.539848 -0.841762 0.000000
vn -0.539848 -0.841762 0.000000
vn -0.773546 -0.633740 0.000000
vn -0.773546 -0.633740 0.000000
vn -0.931523 -0.363683 0.000000
vn -0.931523 -0.363683 0.000000
vn -0.998315 -0.058030 0.000000
vn -0.998315 -0.058030 0.000000
vn -0.967386 0.253307 0.000000
vn -0.967386 0.253307 0.000000
vn -0.841761 0.539850 0.000000
vn -0.841761 0.539850 0.000000
vn -0.633740 0.773546 0.000000
vn -0.633740 0.773546 0.000000
vn -0.363685 0.931522 0.000000
vn -0.363685 0.931522 0.000000
vn -0.213484 0.976947 0.000000
vn -0.213484 0.976947 0.000000
vn 0.000000 0.000000 1.000000
vn 0.000000 0.000000 1.000000
vn 0.000000 0.000000 1.000000
vn 0.000000 0.000000 1.000000
vn 0.000000 0.000000 1.000000
vn 0.000000 0.000000 1.000000
vn 0.000000 0.000000 1.000000
vn 0.000000 0.000000 1.000000
vn 0.000000 0.000000 1.000000
vn 0.000000 0.000000 1.000000
vn 0.000000 0.000000 1.000000
vn 0.000000 0.000000 1.000000
vn 0.000000 0.000000 1.000000
vn 0.000000 0.000000 1.000000
vn 0.000000 0.000000 1.000000
vn 0.000000 0.000000 1.000000
vn 0.000000 0.000000 1.000000
vn 0.000000 0.000000 1.000000
vn 0.000000 0.000000 1.000000
vn 0.000000 0.000000 1.000000
vn 0.000000 0.000000 1.000000
vn 0.000000 0.000000 1.000000
vn 0.000000 0.000000 1.000000
vn 0.000000 0.000000 1.000000
vn 0.000000 0.000000 1.000000
vn 0.000000 0.000000 1.000000
vn -0.028305 0.999599 0.000000
vn -0.028305 0.999599 0.000000
vn -0.028305 0.999599 0.000000
vn -0.028305 0.999599 0.000000
vn 0.000000 0.000000 -1.000000
vn 0.000000 0.000000 -1.000000
vn 0.000000 0.000000 -1.000000
vn 0.000000 0.000000 -1.000000
vn 0.028305 -0.999599 0.000000
vn 0.028305 -0.999599 0.000000
vn 0.028305 -0.999599 0.000000
vn 0.028305 -0.999599 0.000000
vn 0.999599 0.028306 0.000000
vn 0.999599 0.028306 0.000000
vn 0.999599 0.028306 0.000000
vn 0.999599 0.028306 0.000000
vn -0.999599 -0.028305 0.000000
vn -0.999599 -0.028305 0.000000
vn -0.999599 -0.028305 0.000000
vn -0.999599 -0.028305 0.000000
vn 0.000000 0.000000 1.000000
vn 0.000000 0.000000 1.000000
vn 0.000000 0.000000 1.000000
vn 0.000000 0.000000 1.000000
vn -0.028305 0.999599 0.000000
vn -0.028305 0.999599 0.000000
vn -0.028305 0.999599 0.000000
vn -0.028305 0.999599 0.000000
vn 0.000000 0.000000 -1.000000
vn 0.000000 0.000000 -1.000000
vn 0.000000 0.000000 -1.000000
vn 0.000000 0.000000 -1.000000
vn 0.028305 -0.999599 0.000000
vn 0.028305 -0.999599 0.000000
vn 0.028305 -0.999599 0.000000
vn 0.028305 -0.999599 0.000000
vn 0.999599 0.028305 0.000000
vn 0.999599 0.028305 0.000000
vn 0.999599 0.028305 0.000000
vn 0.999599 0.028305 0.000000
vn -0.999599 -0.028306 0.000000
vn -0.999599 -0.028306 0.000000
vn -0.999599 -0.028306 0.000000
vn -0.999599 -0.028306 0.000000
vn -0.309016 -0.951057 0.000000
vn -0.156434 -0.987689 0.000000
vn -0.156434 -0.987689 0.000000
vn -0.309016 -0.951057 0.000000
vn -0.587785 -0.809017 0.000000
vn -0.587785 -0.809017 0.000000
vn -0.809017 -0.587785 0.000000
vn -0.809017 -0.587785 0.000000
vn -0.951057 -0.309015 0.000000
vn -0.951057 -0.309015 0.000000
vn -1.000000 0.000000 0.000000
vn -1.000000 0.000000 0.000000
vn -0.951057 0.309015 0.000000
vn -0.951057 0.309015 0.000000
vn -0.809017 0.587785 0.000000
vn -0.809017 0.587785 0.000000
vn -0.587785 0.809017 0.000000
vn -0.587785 0.809017 0.000000
vn -0.309018 0.951056 0.000000
vn -0.309018 0.951056 0.000000
vn -0.156437 0.987688 0.000000
vn -0.156437 0.987688 0.000000
vn 0.000000 0.000000 -1.000000
vn 0.000000 0.000000 -1.000000
vn 0.000000 0.000000 -1.000000
vn 0.000000 0.000000 -1.000000
vn 0.000000 0.000000 -1.000000
vn 0.000000 0.000000 -1.000000
vn 0.000000 0.000000 -1.000000
vn 0.000000 0.000000 -1.000000
vn 0.000000 0.000000 -1.000000
vn 0.000000 0.000000 -1.000000
vn 0.000000 0.000000 -1.000000
vn 0.000000 0.000000 -1.000000
vn 0.000000 0.000000 -1.000000
vn 0.000000 0.000000 -1.000000
vn 0.000000 0.000000 -1.000000
vn 0.000000 0.000000 -1.000000
vn 0.000000 0.000000 -1.000000
vn 0.000000 0.000000 -1.000000
vn 0.000000 0.000000 -1.000000
vn 0.000000 0.000000 -1.000000
vn 0.000000 0.000000 -1.000000
vn 0.000000 0.000000 -1.000000
vn 0.309016 0.951057 0.000000
vn 0.156435 0.987688 0.000000
vn 0.156435 0.987688 0.000000
vn 0.309016 0.951057 0.000000
vn 0.587785 0.809017 0.000000
vn 0.587785 0.809017 0.000000
vn 0.809017 0.587785 0.000000
vn 0.809017 0.587785 0.000000
vn 0.951057 0.309017 0.000000
vn 0.951057 0.309017 0.000000
vn 1.000000 0.000000 0.000000
vn 1.000000 0.000000 0.000000
vn 0.951057 -0.309017 0.000000
vn 0.951057 -0.309017 0.000000
vn 0.809017 -0.587785 0.000000
vn 0.809017 -0.587785 0.000000
vn 0.587786 -0.809017 0.000000
vn 0.587786 -0.809017 0.000000
vn 0.309017 -0.951057 0.000000
vn 0.309017 -0.951057 0.000000
vn 0.156435 -0.987688 0.000000
vn 0.156435 -0.987688 0.000000
vn 0.000000 0.000000 1.000000
vn 0.000000 0.000000 1.000000
vn 0.000000 0.000000 1.000000
vn 0.000000 0.000000 1.000000
vn 0.000000 0.000000 1.000000
vn 0.000000 0.000000 1.000000
vn 0.000000 0.000000 1.000000
vn 0.000000 0.000000 1.000000
vn 0.000000 0.000000 1.000000
vn 0.000000 0.000000 1.000000
vn 0.000000 0.000000 1.000000
vn 0.000000 0.000000 1.000000
vn 0.000000 0.000000 1.000000
vn 0.000000 0.000000 1.000000
vn 0.000000 0.000000 1.000000
vn 0.000000 0.000000 1.000000
vn 0.000000 0.000000 1.000000
vn 0.000000 0.000000 1.000000
vn 0.000000 0.000000 1.000000
vn 0.000000 0.000000 1.000000
vn 0.000000 0.000000 1.000000
vn 0.000000 0.000000 1.000000
s off
g pCube4
usemtl lambert2SG
f 1/1/1 2/2/2 4/3/3 3/4/4
f 3/249/5 4/250/6 6/251/7 5/252/8
f 5/5/9 6/6/10 8/7/11 7/8/12
f 7/255/13 8/256/14 2/257/15 1/258/16
f 2/257/17 8/256/18 6/259/19 4/260/20
f 7/253/21 1/254/22 3/249/23 5/252/24
s 1
f 10/9/25 9/10/26 20/11/27 21/12/28
f 11/13/29 10/9/25 21/12/28 22/14/30
f 12/15/31 11/13/29 22/14/30 23/16/32
f 13/17/33 12/15/31 23/16/32 24/18/34
f 14/19/35 13/20/33 24/21/34 25/22/36
f 15/23/37 14/19/35 25/22/36 26/24/38
f 16/25/39 15/23/37 26/24/38 27/26/40
f 17/27/41 16/25/39 27/26/40 28/28/42
f 18/29/43 17/27/41 28/28/42 29/30/44
f 19/31/45 18/32/43 29/33/44 30/34/46
s 2
f 21/35/47 20/36/48 31/37/49 32/38/50
f 22/39/51 21/35/47 32/38/50 33/40/52
f 23/41/53 22/39/51 33/40/52 34/42/54
f 24/43/55 23/41/53 34/42/54 35/44/56
f 25/45/57 24/43/55 35/44/56 36/46/58
f 26/47/59 25/45/57 36/46/58 37/48/60
f 27/49/61 26/47/59 37/48/60 38/50/62
f 28/51/63 27/49/61 38/50/62 39/52/64
f 29/53/65 28/51/63 39/52/64 40/54/66
f 30/55/67 29/53/65 40/54/66 41/56/68
s 3
f 32/57/69 31/58/70 42/59/71 43/60/72
f 33/61/73 32/57/69 43/60/72 44/62/74
f 34/63/75 33/61/73 44/62/74 45/64/76
f 35/65/77 34/63/75 45/64/76 46/66/78
f 36/67/79 35/68/77 46/69/78 47/70/80
f 37/71/81 36/67/79 47/70/80 48/72/82
f 38/73/83 37/71/81 48/72/82 49/74/84
f 39/75/85 38/73/83 49/74/84 50/76/86
f 40/77/87 39/75/85 50/76/86 51/78/88
f 41/79/89 40/80/87 51/81/88 52/82/90
s 4
f 43/83/91 42/84/92 9/85/93 10/86/94
f 44/87/95 43/83/91 10/86/94 11/88/96
f 45/89/97 44/87/95 11/88/96 12/90/98
f 46/91/99 45/89/97 12/90/98 13/92/100
f 47/93/101 46/91/99 13/92/100 14/94/102
f 48/95/103 47/93/101 14/94/102 15/96/104
f 49/97/105 48/95/103 15/96/104 16/98/106
f 50/99/107 49/97/105 16/98/106 17/100/108
f 51/101/109 50/99/107 17/100/108 18/102/110
f 52/103/111 51/101/109 18/102/110 19/104/112
s off
f 53/105/113 54/106/114 56/107/115 55/108/116
f 55/109/117 56/110/118 58/111/119 57/112/120
f 57/113/121 58/114/122 60/115/123 59/116/124
f 59/117/125 60/118/126 54/119/127 53/120/128
f 54/121/129 60/122/130 58/123/131 56/124/132
f 59/125/133 53/126/134 55/127/135 57/128/136
f 61/129/137 62/130/138 64/131/139 63/132/140
f 63/133/141 64/134/142 66/135/143 65/136/144
f 65/137/145 66/138/146 68/139/147 67/140/148
f 67/141/149 68/142/150 62/143/151 61/144/152
f 62/145/153 68/146/154 66/147/155 64/148/156
f 67/149/157 61/150/158 63/151/159 65/152/160
s 5
f 70/153/161 69/154/162 80/155/163 81/156/164
f 71/157/165 70/153/161 81/156/164 82/158/166
f 72/159/167 71/157/165 82/158/166 83/160/168
f 73/161/169 72/162/167 83/163/168 84/164/170
f 74/165/171 73/161/169 84/164/170 85/166/172
f 75/167/173 74/165/171 85/166/172 86/168/174
f 76/169/175 75/167/173 86/168/174 87/170/176
f 77/171/177 76/169/175 87/170/176 88/172/178
f 78/173/179 77/174/177 88/175/178 89/176/180
f 79/177/181 78/173/179 89/176/180 90/178/182
s 6
f 81/179/183 80/180/184 91/181/185 92/182/186
f 82/183/187 81/179/183 92/182/186 93/184/188
f 83/185/189 82/183/187 93/184/188 94/186/190
f 84/187/191 83/185/189 94/186/190 95/188/192
f 85/189/193 84/187/191 95/188/192 96/190/194
f 86/191/195 85/189/193 96/190/194 97/192/196
f 87/193/197 86/191/195 97/192/196 98/194/198
f 88/195/199 87/193/197 98/194/198 99/196/200
f 89/197/201 88/195/199 99/196/200 100/198/202
f 90/199/203 89/197/201 100/198/202 101/200/204
s 7
f 92/201/205 91/202/206 102/203/207 103/204/208
f 93/205/209 92/201/205 103/204/208 104/206/210
f 94/207/211 93/205/209 104/206/210 105/208/212
f 95/209/213 94/210/211 105/211/212 106/212/214
f 96/213/215 95/209/213 106/212/214 107/214/216
f 97/215/217 96/213/215 107/214/216 108/216/218
f 98/217/219 97/215/217 108/216/218 109/218/220
f 99/219/221 98/217/219 109/218/220 110/220/222
f 100/221/223 99/222/221 110/223/222 111/224/224
f 101/225/225 100/221/223 111/224/224 112/226/226
s 8
f 103/227/227 102/228/228 69/229/229 70/230/230
f 104/231/231 103/227/227 70/230/230 71/232/232
f 105/233/233 104/231/231 71/232/232 72/234/234
f 106/235/235 105/233/233 72/234/234 73/236/236
f 107/237/237 106/235/235 73/236/236 74/238/238
f 108/239/239 107/237/237 74/238/238 75/240/240
f 109/241/241 108/239/239 75/240/240 76/242/242
f 110/243/243 109/241/241 76/242/242 77/244/244
f 111/245/245 110/243/243 77/244/244 78/246/246
f 112/247/247 111/245/245 78/246/246 79/248/248
